<?xml version="1.0" encoding="utf-8"?>
<!-- Generator: Adobe Illustrator 24.0.1, SVG Export Plug-In . SVG Version: 6.00 Build 0)  -->
<svg version="1.1" id="图层_1" xmlns="http://www.w3.org/2000/svg" xmlns:xlink="http://www.w3.org/1999/xlink" x="0px" y="0px"
	 viewBox="0 0 14 14" style="enable-background:new 0 0 14 14;" xml:space="preserve">
<path d="M8.3,14H1.2C0.5,14,0,13.5,0,12.8V4.7c0-0.3,0.3-0.6,0.6-0.6s0.6,0.3,0.6,0.6v8.1h7.1c0.3,0,0.6,0.3,0.6,0.6
	C8.9,13.7,8.6,14,8.3,14z M11.3,7.9c-0.3,0-0.6-0.3-0.6-0.6V1.2h-6c-0.3,0-0.6-0.3-0.6-0.6S4.4,0,4.7,0h6c0.6,0,1.2,0.5,1.2,1.2v6.1
	C11.9,7.6,11.6,7.9,11.3,7.9z M10.7,1.2L10.7,1.2L10.7,1.2z"/>
<path d="M4.6,5.8H1c-0.3,0-0.6-0.3-0.6-0.6S0.7,4.6,1,4.6h3.6c0.3,0,0.6,0.3,0.6,0.6S4.9,5.8,4.6,5.8z M13.4,11.9H9.2
	c-0.3,0-0.6-0.3-0.6-0.6c0-0.3,0.3-0.6,0.6-0.6h4.2c0.3,0,0.6,0.3,0.6,0.6C14,11.6,13.7,11.9,13.4,11.9z"/>
<path d="M11.3,14c-0.3,0-0.6-0.3-0.6-0.6V9.2c0-0.3,0.3-0.6,0.6-0.6c0.3,0,0.6,0.3,0.6,0.6v4.2C11.9,13.7,11.6,14,11.3,14z M4.7,5.8
	c-0.3,0-0.6-0.3-0.6-0.6V0.7c0-0.3,0.3-0.6,0.6-0.6c0.3,0,0.6,0.3,0.6,0.6v4.5C5.3,5.6,5,5.8,4.7,5.8z"/>
<path d="M0.6,5.2c-0.2,0-0.3-0.1-0.4-0.2c-0.2-0.2-0.2-0.6,0-0.8l4.1-4c0.2-0.2,0.6-0.2,0.9,0c0.2,0.2,0.2,0.6,0,0.8L1,5.1
	C0.9,5.2,0.8,5.2,0.6,5.2z"/>
</svg>
