<?xml version="1.0" encoding="utf-8"?>
<!-- Generator: Adobe Illustrator 26.5.0, SVG Export Plug-In . SVG Version: 6.00 Build 0)  -->
<svg version="1.1" id="_图层_1" xmlns="http://www.w3.org/2000/svg" xmlns:xlink="http://www.w3.org/1999/xlink" x="0px" y="0px"
	 viewBox="0 0 12.5 14" style="enable-background:new 0 0 12.5 14;" xml:space="preserve">
<style type="text/css">
	.st0{clip-path:url(#SVGID_00000019649878653458606470000009759770872028399004_);}
	.st1{fill:#0075FF;}
</style>
<g>
	<defs>
		<rect id="SVGID_1_" width="12.5" height="14"/>
	</defs>
	<clipPath id="SVGID_00000098938806137641688160000013205052093849407415_">
		<use xlink:href="#SVGID_1_"  style="overflow:visible;"/>
	</clipPath>
	<g style="clip-path:url(#SVGID_00000098938806137641688160000013205052093849407415_);">
		<path class="st1" d="M6.2,7.3c1.2,0,2.3,0.3,3.3,0.9c-1.4,0.1-2.6,0.9-3,2.1S6.2,13.1,7.2,14H0.6c-0.2,0-0.3-0.1-0.4-0.2
			S0,13.6,0,13.4C0,10.1,2.8,7.3,6.2,7.3C6.2,7.3,6.2,7.3,6.2,7.3z M9.9,8.8c0.3,0,0.6,0.3,0.6,0.6v1.4h1.4c0.3,0,0.6,0.3,0.6,0.6
			c0,0.3-0.3,0.6-0.6,0.6h-1.4v1.4c0,0.3-0.3,0.6-0.6,0.6s-0.6-0.3-0.6-0.6V12H7.8c-0.3,0-0.6-0.3-0.6-0.6c0-0.3,0.3-0.6,0.6-0.6
			h1.4V9.4C9.3,9.1,9.5,8.8,9.9,8.8L9.9,8.8L9.9,8.8z M6.2,0c2,0,3.7,1.6,3.7,3.6S8.2,7.3,6.2,7.3S2.5,5.7,2.5,3.6
			C2.5,1.6,4.1,0,6.2,0L6.2,0z"/>
	</g>
</g>
</svg>
