<?xml version="1.0" encoding="UTF-8"?>
<svg id="_图层_1" data-name="图层 1" xmlns="http://www.w3.org/2000/svg" xmlns:xlink="http://www.w3.org/1999/xlink" viewBox="0 0 12 13.5">
  <defs>
    <style>
      .cls-1 {
        fill: #0075FF;
      }

      .cls-2 {
        clip-path: url(#clippath);
      }

      .cls-3 {
        fill: none;
      }
    </style>
    <clipPath id="clippath">
      <rect class="cls-3" x="0" width="12.5" height="14"/>
    </clipPath>
  </defs>
  <g class="cls-2">
    <path class="cls-1" d="M5.94,7.04c1.15,0,2.23,.33,3.14,.9-1.3,.05-2.45,.86-2.92,2.06-.47,1.2-.19,2.57,.73,3.48H.55c-.15,0-.29-.06-.39-.16C.06,13.22,0,13.08,0,12.93c0-3.25,2.66-5.89,5.94-5.89h0Zm3.54,1.44c.31,0,.57,.25,.57,.56v1.37h1.38c.31,0,.57,.25,.57,.56s-.25,.56-.57,.56h-1.38v1.37c0,.31-.25,.56-.57,.56s-.57-.25-.57-.56v-1.37h-1.38c-.31,0-.57-.25-.57-.56s.25-.56,.57-.56h1.38v-1.37c0-.31,.25-.57,.57-.57h0ZM5.94,0c1.95,0,3.54,1.57,3.54,3.51,0,1.94-1.59,3.51-3.54,3.51-1.95,0-3.54-1.57-3.54-3.51C2.4,1.58,3.98,.01,5.94,0h0ZM5.94,0"/>
  </g>
</svg>