<?xml version="1.0" encoding="utf-8"?>
<!-- Generator: Adobe Illustrator 24.0.1, SVG Export Plug-In . SVG Version: 6.00 Build 0)  -->
<svg version="1.1" id="图层_1" xmlns="http://www.w3.org/2000/svg" xmlns:xlink="http://www.w3.org/1999/xlink" x="0px" y="0px"
	 viewBox="0 0 14 14" style="enable-background:new 0 0 14 14;" xml:space="preserve">
<style type="text/css">
	.st0{fill:black;}
</style>
<path class="st0" d="M13.4,2.6l-2-2l-0.1-0.1c-0.8-0.7-2.1-0.7-2.9,0.1L0.6,8.5L0.5,8.6c-0.7,0.8-0.7,2.1,0.1,2.8l2,2l0.1,0.1
	c0.8,0.7,2.1,0.7,2.8-0.1l7.9-7.9l0.1-0.1C14.2,4.6,14.2,3.4,13.4,2.6L13.4,2.6z M12.7,4.8l-7.9,7.9c-0.4,0.4-1.1,0.4-1.5,0l-2-2
	c-0.4-0.4-0.4-1.1,0-1.5L2,8.6l0.7,0.7c0.2,0.2,0.5,0.2,0.7,0c0.2-0.2,0.2-0.5,0-0.7L2.7,7.9l1.2-1.2l1.2,1.2l0,0
	c0.2,0.2,0.5,0.2,0.7,0c0.2-0.2,0.2-0.5,0-0.7c0,0,0,0,0,0L4.7,5.9l1.2-1.2l0.7,0.7l0,0c0.2,0.2,0.5,0.2,0.7,0
	c0.2-0.2,0.2-0.5,0-0.7c0,0,0,0,0,0L6.6,3.9l1.2-1.2l1.2,1.2l0,0c0.2,0.2,0.5,0.2,0.7-0.1c0.2-0.2,0.2-0.5,0-0.7L8.6,2l0.6-0.6
	c0.4-0.4,1.1-0.4,1.5,0l2,2C13.1,3.7,13.1,4.4,12.7,4.8C12.7,4.8,12.7,4.8,12.7,4.8z"/>
</svg>
