<?xml version="1.0" encoding="UTF-8"?>
<svg id="_图层_1" data-name="图层 1" xmlns="http://www.w3.org/2000/svg" xmlns:xlink="http://www.w3.org/1999/xlink" viewBox="0 0 13.34 14">
  <defs>
    <style>
      .cls-1 {
        fill: #0075FF;
      }

      .cls-2 {
        clip-path: url(#clippath);
      }

      .cls-3 {
        fill: none;
      }
    </style>
    <clipPath id="clippath">
      <rect class="cls-3" x="0" width="13.34" height="14"/>
    </clipPath>
  </defs>
  <g class="cls-2">
    <path class="cls-1" d="M8.77,4.9c-.19,0-.35-.16-.35-.35s.16-.35,.35-.35,.35-.16,.35-.35,.16-.35,.35-.35,.35,.16,.35,.35c0,.58-.47,1.05-1.05,1.05h0Zm.06,5.59c-.15,0-.28-.09-.33-.23-.18-.51-.05-1.07,.33-1.45,.38-.38,.95-.51,1.46-.33,.18,.06,.28,.26,.21,.45-.06,.18-.26,.28-.45,.21-.25-.09-.54-.02-.73,.17-.19,.19-.26,.47-.17,.73,.04,.11,.02,.23-.04,.32-.07,.09-.17,.15-.29,.15h0Zm0,0"/>
    <path class="cls-1" d="M13.33,7.35c0-1.72-.54-3.35-1.55-4.74-.27-.78-.87-1.41-1.64-1.71C9.74,.33,9.08,0,8.39,0c-.69,.01-1.34,.36-1.72,.94C6.28,.37,5.64,.02,4.94,0,4.25,0,3.59,.33,3.19,.9c-.77,.3-1.38,.93-1.64,1.71C.54,3.98,0,5.64,0,7.35,0,7.8,.04,8.26,.12,8.71,.04,9.06,0,9.43,0,9.79,0,10.9,.36,11.94,1,12.73c.66,.81,1.55,1.25,2.5,1.25,.18,0,.37-.02,.55-.05,1.02,.21,2.07-.24,2.61-1.14,.54,.89,1.58,1.35,2.61,1.14,.18,.03,.37,.05,.55,.05,.95,0,1.84-.45,2.5-1.25,.65-.79,1-1.83,1-2.94,0-.37-.04-.73-.12-1.08,.08-.45,.12-.91,.12-1.36h0ZM4.56,13.28c-.97,0-1.75-.78-1.75-1.75,0-.19-.16-.35-.35-.35s-.35,.16-.35,.35c0,.61,.23,1.17,.6,1.6-1.16-.43-2-1.77-2-3.35,0-.81,.23-1.6,.64-2.22,.11-.16,.06-.38-.1-.48-.16-.11-.38-.06-.49,.1l-.06,.09c0-1.11,.27-2.19,.76-3.18,.11,.52,.37,.99,.74,1.37,.09,.09,.22,.12,.34,.09,.12-.03,.22-.12,.25-.24,.03-.12,0-.25-.09-.34-.4-.41-.62-.97-.6-1.54,.02-.57,.28-1.11,.71-1.49-.02,.2,0,.4,.04,.59,.04,.19,.22,.3,.41,.27,.19-.04,.31-.22,.28-.4-.08-.41,.02-.84,.29-1.16,.27-.33,.67-.51,1.09-.51,.77,0,1.4,.63,1.4,1.4V6.83c-.5-.44-1.17-.63-1.83-.49-.19,.04-.31,.22-.27,.41,.04,.19,.22,.31,.41,.27,.41-.08,.84,.02,1.17,.29,.33,.27,.52,.66,.52,1.08v3.14c0,.96-.79,1.75-1.75,1.75h0Zm6.06-.15c.39-.44,.6-1.01,.6-1.6,0-.19-.16-.35-.35-.35s-.35,.16-.35,.35c0,.96-.79,1.75-1.75,1.75-.97,0-1.75-.78-1.75-1.75v-3.14c0-.42,.19-.82,.52-1.08s.76-.37,1.17-.29c.19,.04,.38-.08,.41-.27,.04-.19-.08-.37-.27-.41-.65-.13-1.33,.05-1.83,.49V2.1c0-.77,.63-1.4,1.4-1.4,.42,0,.82,.19,1.09,.51,.27,.33,.37,.75,.29,1.16-.02,.12,.02,.25,.11,.33,.09,.08,.23,.11,.34,.07,.12-.04,.21-.14,.23-.26,.04-.19,.05-.39,.04-.59,.43,.38,.69,.92,.71,1.49,.02,.57-.2,1.13-.6,1.54-.13,.14-.13,.36,0,.49,.14,.13,.36,.13,.49,0,.37-.38,.63-.85,.74-1.37,.49,.99,.75,2.08,.76,3.18-.02-.03-.04-.06-.06-.09-.11-.16-.32-.2-.49-.1-.16,.11-.21,.32-.1,.48,.41,.62,.64,1.41,.64,2.22,0,1.58-.85,2.92-2,3.35h0Zm0,0"/>
  </g>
  <path class="cls-1" d="M4.56,4.9c-.58,0-1.05-.47-1.05-1.05,0-.19,.16-.35,.35-.35s.35,.16,.35,.35c0,.09,.04,.18,.1,.25,.07,.07,.15,.1,.25,.1,.19,0,.35,.16,.35,.35s-.16,.35-.35,.35h0Zm-.06,5.59c-.11,0-.22-.05-.29-.15-.07-.09-.08-.21-.04-.32,.09-.25,.02-.54-.17-.73-.19-.19-.47-.25-.73-.17-.18,.06-.38-.03-.45-.21-.06-.18,.03-.38,.21-.45,.51-.18,1.08-.05,1.46,.33,.38,.38,.51,.95,.33,1.45-.05,.14-.18,.23-.33,.23h0Zm0,0"/>
</svg>