<?xml version="1.0" encoding="utf-8"?>
<!-- Generator: Adobe Illustrator 24.0.1, SVG Export Plug-In . SVG Version: 6.00 Build 0)  -->
<svg version="1.1" id="图层_1" xmlns="http://www.w3.org/2000/svg" xmlns:xlink="http://www.w3.org/1999/xlink" x="0px" y="0px"
	 viewBox="0 0 15.1 14" style="enable-background:new 0 0 15.1 14;" xml:space="preserve">
<path d="M0.9,7.4C0.7,7.4,0.6,7.2,0.6,7c0-0.2,0.2-0.4,0.4-0.4h1.9c0.2,0,0.3-0.1,0.3-0.3l1.6-5.8C4.9,0.1,5.3-0.1,5.7,0
	c0.2,0.1,0.4,0.3,0.5,0.5l3.5,12.7l1.6-5.8c0.1-0.5,0.5-0.8,1-0.8h1.9c0.2,0,0.3,0.2,0.3,0.4c0,0.2-0.2,0.4-0.3,0.4h-1.9
	c-0.2,0-0.3,0.1-0.3,0.3l-1.6,5.8c-0.1,0.4-0.5,0.6-0.9,0.5c-0.2-0.1-0.4-0.3-0.5-0.5L5.5,0.8L3.8,6.6c-0.1,0.5-0.5,0.8-1,0.8
	L0.9,7.4L0.9,7.4z"/>
<path d="M0.4,7.4C0.2,7.4,0,7.2,0,7c0-0.2,0.2-0.4,0.4-0.4h2.1c0.2,0,0.3-0.1,0.4-0.3l1.7-5.8C4.7,0.1,5.1-0.1,5.5,0
	C5.8,0.1,5.9,0.3,6,0.5l3.8,12.7l1.7-5.8c0.1-0.5,0.6-0.8,1.1-0.8h2.1c0.2,0,0.4,0.2,0.4,0.4c0,0.2-0.2,0.4-0.4,0.4h-2.1
	c-0.2,0-0.3,0.1-0.4,0.3l-1.7,5.8c-0.1,0.4-0.5,0.6-0.9,0.5c-0.2-0.1-0.4-0.3-0.5-0.5L5.3,0.8L3.5,6.6C3.4,7.1,3,7.4,2.5,7.4
	L0.4,7.4L0.4,7.4z"/>
</svg>
