<?xml version="1.0" encoding="utf-8"?>
<!-- Generator: Adobe Illustrator 24.0.1, SVG Export Plug-In . SVG Version: 6.00 Build 0)  -->
<svg version="1.1" id="_图层_1" xmlns="http://www.w3.org/2000/svg" xmlns:xlink="http://www.w3.org/1999/xlink" x="0px" y="0px"
	 viewBox="0 0 14 14" style="enable-background:new 0 0 14 14;" xml:space="preserve">
<style type="text/css">
	.st0{clip-path:url(#SVGID_2_);}
</style>
<g>
	<defs>
		<rect id="SVGID_1_" width="14" height="14"/>
	</defs>
	<clipPath id="SVGID_2_">
		<use xlink:href="#SVGID_1_"  style="overflow:visible;"/>
	</clipPath>
	<g class="st0">
		<path d="M7.8,7l6-6c0.2-0.2,0.2-0.6,0-0.8S13.2,0,13,0.2l-6,6l-6-6c-0.2-0.2-0.6-0.2-0.8,0c-0.2,0.2-0.2,0.6,0,0.8l6,6l-6,6
			C0,13.1,0,13.4,0,13.6s0.2,0.4,0.4,0.4c0.2,0.1,0.4,0,0.6-0.1l6-6l6,6c0.1,0.1,0.4,0.2,0.6,0.1c0.2-0.1,0.4-0.2,0.4-0.4
			c0.1-0.2,0-0.4-0.1-0.6L7.8,7z"/>
	</g>
</g>
</svg>
