<?xml version="1.0" encoding="utf-8"?>
<!-- Generator: Adobe Illustrator 24.0.1, SVG Export Plug-In . SVG Version: 6.00 Build 0)  -->
<svg version="1.1" id="图层_1" xmlns="http://www.w3.org/2000/svg" xmlns:xlink="http://www.w3.org/1999/xlink" x="0px" y="0px"
	 viewBox="0 0 14 14" style="enable-background:new 0 0 14 14;" xml:space="preserve">
<title>CloseIco</title>
<path d="M7,5.8l5.5-5.5c0.3-0.3,0.9-0.3,1.2,0l0,0c0.3,0.3,0.3,0.9,0,1.2c0,0,0,0,0,0l0,0L8.2,7l5.5,5.5c0.3,0.3,0.3,0.9,0,1.2
	c0,0,0,0,0,0c-0.3,0.3-0.9,0.3-1.2,0l0,0L7,8.2l-5.5,5.5c-0.3,0.3-0.9,0.3-1.2,0l0,0c-0.3-0.3-0.3-0.9,0-1.2c0,0,0,0,0,0l0,0L5.8,7
	L0.3,1.5c-0.3-0.3-0.4-0.9,0-1.2c0,0,0,0,0,0l0,0c0.3-0.3,0.9-0.3,1.2,0l0,0L7,5.8z"/>
</svg>
