<?xml version="1.0" encoding="utf-8"?>
<!-- Generator: Adobe Illustrator 24.0.1, SVG Export Plug-In . SVG Version: 6.00 Build 0)  -->
<svg version="1.1" id="图层_1" xmlns="http://www.w3.org/2000/svg" xmlns:xlink="http://www.w3.org/1999/xlink" x="0px" y="0px"
	 viewBox="0 0 14 14" style="enable-background:new 0 0 14 14;" xml:space="preserve">
<path d="M12.6,0H4.5C3.8,0,3.2,0.6,3.2,1.3v1.1h1.3V1.7c0-0.2,0.2-0.4,0.5-0.4h7.3c0.3,0,0.5,0.2,0.5,0.4v8c0,0.1,0,0.2-0.1,0.3
	c-0.1,0.1-0.2,0.1-0.3,0.1h-1.9v1.3h2.3c0.7,0,1.4-0.6,1.4-1.3V1.3C14,0.6,13.4,0,12.6,0z"/>
<path d="M9.5,2.6H1.4C0.6,2.6,0,3.1,0,3.9V5h1.3V4.3c0-0.2,0.2-0.4,0.5-0.4h7.3c0.3,0,0.5,0.2,0.5,0.4v8c0,0.1,0,0.2-0.1,0.3
	c-0.1,0.1-0.2,0.1-0.3,0.1H7.1V14h2.3c0.7,0,1.4-0.6,1.4-1.3V3.9C10.8,3.1,10.2,2.6,9.5,2.6z"/>
<path d="M0,3.9v8.8C0,13.4,0.6,14,1.4,14h6.1v-1.3H1.7c-0.1,0-0.2,0-0.3-0.1c-0.1-0.1-0.1-0.2-0.1-0.3v-8c0-0.2,0.2-0.4,0.5-0.4h7.3
	c0.3,0,0.5,0.2,0.5,0.4V5h1.3V3.9c0-0.7-0.6-1.3-1.4-1.3H1.4C0.6,2.6,0,3.1,0,3.9z"/>
<path d="M3.2,5.1h4.5c0.4,0,0.6,0.3,0.6,0.6c0,0.4-0.3,0.6-0.6,0.6H3.2c-0.4,0-0.6-0.3-0.6-0.6C2.5,5.4,2.8,5.1,3.2,5.1z M3.2,7.6
	h4.5c0.4,0,0.6,0.3,0.6,0.6c0,0.4-0.3,0.6-0.6,0.6H3.2c-0.4,0-0.6-0.3-0.6-0.6C2.5,7.9,2.8,7.6,3.2,7.6z M3.2,10.2h4.5
	c0.4,0,0.6,0.3,0.6,0.6c0,0.4-0.3,0.6-0.6,0.6H3.2c-0.4,0-0.6-0.3-0.6-0.6C2.5,10.5,2.8,10.2,3.2,10.2z"/>
</svg>
