<?xml version="1.0" encoding="utf-8"?>
<!-- Generator: Adobe Illustrator 24.0.1, SVG Export Plug-In . SVG Version: 6.00 Build 0)  -->
<svg version="1.1" id="图层_1" xmlns="http://www.w3.org/2000/svg" xmlns:xlink="http://www.w3.org/1999/xlink" x="0px" y="0px"
	 viewBox="0 0 14 14" style="enable-background:new 0 0 14 14;" xml:space="preserve">
<style type="text/css">
	.st0{fill:black;}
</style>
<path class="st0" d="M12.5,0C13.3,0,14,0.7,14,1.5v11.2c0,0.7-0.6,1.3-1.3,1.3H1.5C0.7,14,0,13.3,0,12.5V1.5C0,0.7,0.7,0,1.5,0
	C1.5,0,12.5,0,12.5,0z M1.5,0.9c-0.4,0-0.7,0.3-0.7,0.7v10.9c0,0.4,0.3,0.7,0.7,0.7h11.2c0.2,0,0.4-0.2,0.4-0.4V1.5
	c0-0.4-0.3-0.7-0.7-0.7C12.5,0.9,1.5,0.9,1.5,0.9z M6.4,6.5l0.5,0.9l-0.6,1c0.4,0.6,0.3,1.4-0.3,1.8s-1.4,0.3-1.8-0.3
	S3.9,8.5,4.5,8.1c0.3-0.2,0.7-0.3,1.1-0.2C5.6,7.9,6.4,6.5,6.4,6.5z M6,3.7L6,3.7l2.4,4.1c0.7-0.2,1.4,0.3,1.5,1s-0.3,1.4-1,1.5
	c-0.7,0.2-1.4-0.3-1.5-1C7.4,9,7.5,8.6,7.7,8.3L5.3,4.2C5.2,4,5.3,3.7,5.5,3.6C5.7,3.5,5.9,3.5,6,3.7L6,3.7L6,3.7z M4.9,8.9
	c-0.1,0.2,0,0.5,0.2,0.6c0.2,0.1,0.5,0,0.6-0.2c0.1-0.2,0-0.5-0.2-0.6C5.3,8.7,5,8.7,4.9,8.9z M8.5,8.7C8.3,8.8,8.2,9.1,8.3,9.3
	s0.4,0.3,0.6,0.2c0.2-0.1,0.3-0.4,0.2-0.6C9,8.7,8.7,8.6,8.5,8.7z M8.5,3.7C8.7,3.8,8.8,4,8.7,4.2l0,0.1L7.7,6L7.2,5.2l0.8-1.3
	C8,3.7,8.3,3.6,8.5,3.7L8.5,3.7L8.5,3.7z"/>
</svg>
