<?xml version="1.0" encoding="utf-8"?>
<!-- Generator: Adobe Illustrator 24.0.1, SVG Export Plug-In . SVG Version: 6.00 Build 0)  -->
<svg version="1.1" id="图层_1" xmlns="http://www.w3.org/2000/svg" xmlns:xlink="http://www.w3.org/1999/xlink" x="0px" y="0px"
	 viewBox="0 0 16 14" style="enable-background:new 0 0 16 14;" xml:space="preserve">
<style type="text/css">
	.st0{fill:black;}
</style>
<path class="st0" d="M14.8,0C15.5,0,16,0.6,16,1.3v7.4c0,0.7-0.5,1.3-1.2,1.3H8.6v2.6H11c0.3,0,0.6,0.3,0.6,0.7S11.3,14,11,14H5
	c-0.3,0-0.6-0.3-0.6-0.7s0.3-0.7,0.6-0.7h2.4v-2.6H1.2C0.5,10.1,0,9.5,0,8.8V1.3C0,0.6,0.5,0,1.2,0C1.2,0,14.8,0,14.8,0z"/>
</svg>
