<?xml version="1.0" encoding="utf-8"?>
<!-- Generator: Adobe Illustrator 24.0.1, SVG Export Plug-In . SVG Version: 6.00 Build 0)  -->
<svg version="1.1" id="图层_1" xmlns="http://www.w3.org/2000/svg" xmlns:xlink="http://www.w3.org/1999/xlink" x="0px" y="0px"
	 viewBox="0 0 15.1 14" style="enable-background:new 0 0 15.1 14;" xml:space="preserve">
<path d="M13.4,2.2H6.1L5.1,0.3C5.1,0.1,4.8,0,4.6,0H1.7C0.9,0,0,0.8,0,1.6v10.8C0,13.2,0.9,14,1.7,14h11.6c1,0,1.7-0.8,1.7-1.6V3.8
	C15.1,2.9,14.2,2.2,13.4,2.2z M13.9,12.4c0,0.3-0.2,0.5-0.5,0.5H1.7c-0.3,0-0.5-0.2-0.5-0.5V1.6c0-0.3,0.2-0.5,0.5-0.5h2.6l1.1,1.8
	c0,0.2,0.2,0.3,0.4,0.3h7.5c0.3,0,0.5,0.2,0.5,0.5V12.4z"/>
</svg>
