<?xml version="1.0" encoding="utf-8"?>
<!-- Generator: Adobe Illustrator 24.0.1, SVG Export Plug-In . SVG Version: 6.00 Build 0)  -->
<svg version="1.1" id="图层_1" xmlns="http://www.w3.org/2000/svg" xmlns:xlink="http://www.w3.org/1999/xlink" x="0px" y="0px"
	 viewBox="0 0 14 13" style="enable-background:new 0 0 14 13;" xml:space="preserve">
<path d="M12.4,2H5.7l-1-1.7C4.7,0.1,4.5,0,4.3,0H1.6C0.8,0,0,0.7,0,1.5v10C0,12.3,0.8,13,1.6,13h10.8c0.9,0,1.6-0.7,1.6-1.5v-8
	C14,2.7,13.2,2,12.4,2z M12.9,11.5c0,0.3-0.2,0.5-0.5,0.5H1.6c-0.3,0-0.5-0.2-0.5-0.5v-10C1.1,1.2,1.3,1,1.6,1H4l1,1.7
	C5,2.9,5.2,3,5.4,3h7c0.3,0,0.5,0.2,0.5,0.5V11.5z"/>
</svg>
