<?xml version="1.0" encoding="utf-8"?>
<!-- Generator: Adobe Illustrator 24.0.1, SVG Export Plug-In . SVG Version: 6.00 Build 0)  -->
<svg version="1.1" id="图层_1" xmlns="http://www.w3.org/2000/svg" xmlns:xlink="http://www.w3.org/1999/xlink" x="0px" y="0px"
	 viewBox="0 0 13.5 14" style="enable-background:new 0 0 13.5 14;" xml:space="preserve">
<style type="text/css">
	.st0{fill:#111111;}
</style>
<path class="st0" d="M7.7,0.2c0.2-0.2,0.6-0.2,0.8,0l3.2,3.3c0.2,0.2,0.2,0.6,0,0.8c0,0,0,0,0,0l-7.8,6.9c-0.1,0.1-0.3,0.2-0.4,0.1
	l-2.9-0.1C0.3,11.3,0,11,0,10.7V7.7c0-0.2,0.1-0.3,0.2-0.4L7.7,0.2z M8.5,9.7l4.5,0.1c0.3,0,0.6,0.3,0.6,0.6c0,0.3-0.3,0.6-0.6,0.6
	l-4.5-0.1c-0.3,0-0.6-0.3-0.6-0.6C7.9,10,8.1,9.7,8.5,9.7L8.5,9.7z M8.1,1.4L1.2,8v2.1l2.1,0l7.2-6.3L8.1,1.4z M12.9,12.7
	c0.3,0,0.6,0.3,0.6,0.6c0,0.3-0.3,0.6-0.6,0.6L1.2,14c-0.3,0-0.6-0.3-0.6-0.6c0-0.3,0.3-0.6,0.6-0.6L12.9,12.7z"/>
</svg>
