<?xml version="1.0" encoding="UTF-8"?>
<svg id="_图层_1" data-name="图层 1" xmlns="http://www.w3.org/2000/svg" xmlns:xlink="http://www.w3.org/1999/xlink" viewBox="0 0 12 11">
  <defs>
    <style>
      .cls-1 {
        clip-path: url(#clippath-1);
      }

      .cls-2 {
        fill: #0075FF;
      }

      .cls-3 {
        clip-path: url(#clippath);
      }

      .cls-4 {
        fill: none;
      }
    </style>
    <clipPath id="clippath">
      <rect class="cls-4" x="0" width="12" height="11"/>
    </clipPath>
    <clipPath id="clippath-1">
      <rect class="cls-4" x="0" width="12" height="11"/>
    </clipPath>
  </defs>
  <g class="cls-3">
    <path class="cls-2" d="M6.69,7.27h1.46v2.22c0,.26-.04,.48-.12,.67-.08,.19-.18,.35-.31,.47-.13,.12-.28,.21-.45,.27-.17,.06-.36,.09-.55,.09H1.5c-.19,0-.37-.04-.55-.11-.18-.07-.34-.18-.48-.31-.14-.13-.25-.29-.34-.47-.09-.18-.13-.38-.13-.6V1.45c0-.19,.05-.37,.14-.54,.09-.17,.21-.32,.35-.46,.14-.13,.3-.24,.47-.32C1.13,.05,1.3,.01,1.48,.01H6.66c.2,0,.4,.04,.58,.13,.18,.09,.34,.2,.48,.34,.14,.14,.25,.29,.32,.46,.08,.17,.12,.34,.12,.5V3.6h-1.46V1.37S1.49,1.37,1.49,1.37V9.5s5.21,0,5.21,0v-2.23Zm5.08-2.18c.29,.23,.3,.46,.02,.69-.16,.12-.33,.26-.51,.43-.18,.17-.38,.35-.58,.53-.2,.18-.4,.36-.6,.54-.2,.18-.38,.33-.54,.47-.18,.14-.34,.21-.47,.21s-.19-.09-.19-.28c.02-.11,.02-.25,0-.41-.01-.16-.02-.3-.02-.42,0-.13-.05-.21-.14-.25-.09-.03-.21-.05-.34-.05h-1.19c-.27,0-.55,0-.84,0-.3,0-.58,0-.84,0h-1.2c-.06,0-.13,0-.21-.02-.07-.01-.14-.04-.2-.08-.06-.04-.11-.09-.14-.16-.04-.07-.05-.16-.05-.27,0-.15,0-.32,0-.53,0-.2,0-.38,0-.54,0-.21,.05-.35,.15-.43,.1-.08,.27-.11,.5-.11h1.07c.25,0,.52,0,.81,0,.29,0,.56,0,.82,0h1.16c.2,0,.36,0,.5-.05,.14-.04,.21-.12,.21-.26,0-.11,0-.23,.01-.37,0-.14,.01-.26,.01-.37,0-.18,.05-.29,.15-.34,.1-.05,.22-.01,.37,.11,.15,.12,.32,.27,.53,.44,.2,.17,.4,.34,.61,.51,.2,.18,.41,.35,.61,.52,.2,.17,.38,.32,.55,.46h0Zm0,0"/>
  </g>
  <g class="cls-1">
    <path class="cls-4" d="M6.69,7.27h1.46v2.22c0,.26-.04,.48-.12,.67-.08,.19-.18,.35-.31,.47-.13,.12-.28,.21-.45,.27-.17,.06-.36,.09-.55,.09H1.5c-.19,0-.37-.04-.55-.11-.18-.07-.34-.18-.48-.31-.14-.13-.25-.29-.34-.47-.09-.18-.13-.38-.13-.6V1.45c0-.19,.05-.37,.14-.54,.09-.17,.21-.32,.35-.46,.14-.13,.3-.24,.47-.32C1.13,.05,1.3,.01,1.48,.01H6.66c.2,0,.4,.04,.58,.13,.18,.09,.34,.2,.48,.34,.14,.14,.25,.29,.32,.46,.08,.17,.12,.34,.12,.5V3.6h-1.46V1.37S1.49,1.37,1.49,1.37V9.5s5.21,0,5.21,0v-2.23Zm5.08-2.18c.29,.23,.3,.46,.02,.69-.16,.12-.33,.26-.51,.43-.18,.17-.38,.35-.58,.53-.2,.18-.4,.36-.6,.54-.2,.18-.38,.33-.54,.47-.18,.14-.34,.21-.47,.21s-.19-.09-.19-.28c.02-.11,.02-.25,0-.41-.01-.16-.02-.3-.02-.42,0-.13-.05-.21-.14-.25-.09-.03-.21-.05-.34-.05h-1.19c-.27,0-.55,0-.84,0-.3,0-.58,0-.84,0h-1.2c-.06,0-.13,0-.21-.02-.07-.01-.14-.04-.2-.08-.06-.04-.11-.09-.14-.16-.04-.07-.05-.16-.05-.27,0-.15,0-.32,0-.53,0-.2,0-.38,0-.54,0-.21,.05-.35,.15-.43,.1-.08,.27-.11,.5-.11h1.07c.25,0,.52,0,.81,0,.29,0,.56,0,.82,0h1.16c.2,0,.36,0,.5-.05,.14-.04,.21-.12,.21-.26,0-.11,0-.23,.01-.37,0-.14,.01-.26,.01-.37,0-.18,.05-.29,.15-.34,.1-.05,.22-.01,.37,.11,.15,.12,.32,.27,.53,.44,.2,.17,.4,.34,.61,.51,.2,.18,.41,.35,.61,.52,.2,.17,.38,.32,.55,.46h0Zm0,0"/>
  </g>
</svg>