<?xml version="1.0" encoding="utf-8"?>
<!-- Generator: Adobe Illustrator 26.5.0, SVG Export Plug-In . SVG Version: 6.00 Build 0)  -->
<svg version="1.1" id="_图层_1" xmlns="http://www.w3.org/2000/svg" xmlns:xlink="http://www.w3.org/1999/xlink" x="0px" y="0px"
	 viewBox="0 0 15.3 14" style="enable-background:new 0 0 15.3 14;" xml:space="preserve">
<style type="text/css">
	.st0{clip-path:url(#SVGID_00000170991678430350911330000002593248403136359329_);}
	.st1{fill:#0075FF;}
	.st2{clip-path:url(#SVGID_00000075853165004851052220000005320959946617569934_);}
	.st3{fill:none;}
</style>
<g>
	<defs>
		<rect id="SVGID_1_" width="15.3" height="14"/>
	</defs>
	<clipPath id="SVGID_00000071526217860377125830000009033453702052116902_">
		<use xlink:href="#SVGID_1_"  style="overflow:visible;"/>
	</clipPath>
	<g style="clip-path:url(#SVGID_00000071526217860377125830000009033453702052116902_);">
		<path class="st1" d="M8.5,9.3h1.9v2.8c0,0.3-0.1,0.6-0.2,0.9c-0.1,0.2-0.2,0.4-0.4,0.6c-0.2,0.2-0.4,0.3-0.6,0.3
			C9.1,13.9,8.8,14,8.6,14H1.9c-0.2,0-0.5-0.1-0.7-0.1s-0.4-0.2-0.6-0.4s-0.3-0.4-0.4-0.6C0.1,12.6,0,12.4,0,12.1V1.8
			c0-0.2,0.1-0.5,0.2-0.7s0.3-0.4,0.4-0.6C0.8,0.4,1,0.3,1.2,0.2S1.7,0,1.9,0h6.6C8.7,0,9,0.1,9.2,0.2s0.4,0.3,0.6,0.4
			C10,0.8,10.2,1,10.3,1.2c0.1,0.2,0.2,0.4,0.2,0.6v2.7H8.5V1.7H1.9v10.3h6.6L8.5,9.3L8.5,9.3z M15,6.5c0.4,0.3,0.4,0.6,0,0.9
			c-0.2,0.2-0.4,0.3-0.7,0.5c-0.2,0.2-0.5,0.4-0.7,0.7S13.1,9,12.9,9.3c-0.3,0.2-0.5,0.4-0.7,0.6c-0.2,0.2-0.4,0.3-0.6,0.3
			s-0.2-0.1-0.2-0.4c0-0.1,0-0.3,0-0.5c0-0.2,0-0.4,0-0.5c0-0.2-0.1-0.3-0.2-0.3c-0.1,0-0.3-0.1-0.4-0.1H9.2c-0.3,0-0.7,0-1.1,0
			c-0.4,0-0.7,0-1.1,0H5.5c-0.1,0-0.2,0-0.3,0C5.2,8.3,5.1,8.3,5,8.2S4.9,8.1,4.8,8C4.8,7.9,4.8,7.8,4.8,7.7c0-0.2,0-0.4,0-0.7
			c0-0.3,0-0.5,0-0.7c0-0.3,0.1-0.4,0.2-0.5s0.3-0.1,0.6-0.1h1.4c0.3,0,0.7,0,1,0c0.4,0,0.7,0,1,0h1.5c0.3,0,0.5,0,0.6-0.1
			c0.2-0.1,0.3-0.2,0.3-0.3c0-0.1,0-0.3,0-0.5c0-0.2,0-0.3,0-0.5c0-0.2,0.1-0.4,0.2-0.4c0.1-0.1,0.3,0,0.5,0.1
			c0.2,0.2,0.4,0.3,0.7,0.6C13,4.8,13.3,5,13.6,5.2c0.3,0.2,0.5,0.4,0.8,0.7C14.6,6.1,14.8,6.3,15,6.5L15,6.5L15,6.5z"/>
	</g>
</g>
<g>
	<defs>
		<rect id="SVGID_00000181085530672728907800000005713034344495830937_" width="15.3" height="14"/>
	</defs>
	<clipPath id="SVGID_00000044171040047818966140000018104943872573817999_">
		<use xlink:href="#SVGID_00000181085530672728907800000005713034344495830937_"  style="overflow:visible;"/>
	</clipPath>
	<g style="clip-path:url(#SVGID_00000044171040047818966140000018104943872573817999_);">
		<path class="st3" d="M8.5,9.3h1.9v2.8c0,0.3-0.1,0.6-0.2,0.9c-0.1,0.2-0.2,0.4-0.4,0.6c-0.2,0.2-0.4,0.3-0.6,0.3
			C9.1,13.9,8.8,14,8.6,14H1.9c-0.2,0-0.5-0.1-0.7-0.1s-0.4-0.2-0.6-0.4s-0.3-0.4-0.4-0.6C0.1,12.6,0,12.4,0,12.1V1.8
			c0-0.2,0.1-0.5,0.2-0.7s0.3-0.4,0.4-0.6C0.8,0.4,1,0.3,1.2,0.2S1.7,0,1.9,0h6.6C8.7,0,9,0.1,9.2,0.2s0.4,0.3,0.6,0.4
			C10,0.8,10.2,1,10.3,1.2c0.1,0.2,0.2,0.4,0.2,0.6v2.7H8.5V1.7H1.9v10.3h6.6L8.5,9.3L8.5,9.3z M15,6.5c0.4,0.3,0.4,0.6,0,0.9
			c-0.2,0.2-0.4,0.3-0.7,0.5c-0.2,0.2-0.5,0.4-0.7,0.7S13.1,9,12.9,9.3c-0.3,0.2-0.5,0.4-0.7,0.6c-0.2,0.2-0.4,0.3-0.6,0.3
			s-0.2-0.1-0.2-0.4c0-0.1,0-0.3,0-0.5c0-0.2,0-0.4,0-0.5c0-0.2-0.1-0.3-0.2-0.3c-0.1,0-0.3-0.1-0.4-0.1H9.2c-0.3,0-0.7,0-1.1,0
			c-0.4,0-0.7,0-1.1,0H5.5c-0.1,0-0.2,0-0.3,0C5.2,8.3,5.1,8.3,5,8.2S4.9,8.1,4.8,8C4.8,7.9,4.8,7.8,4.8,7.7c0-0.2,0-0.4,0-0.7
			c0-0.3,0-0.5,0-0.7c0-0.3,0.1-0.4,0.2-0.5s0.3-0.1,0.6-0.1h1.4c0.3,0,0.7,0,1,0c0.4,0,0.7,0,1,0h1.5c0.3,0,0.5,0,0.6-0.1
			c0.2-0.1,0.3-0.2,0.3-0.3c0-0.1,0-0.3,0-0.5c0-0.2,0-0.3,0-0.5c0-0.2,0.1-0.4,0.2-0.4c0.1-0.1,0.3,0,0.5,0.1
			c0.2,0.2,0.4,0.3,0.7,0.6C13,4.8,13.3,5,13.6,5.2c0.3,0.2,0.5,0.4,0.8,0.7C14.6,6.1,14.8,6.3,15,6.5L15,6.5L15,6.5z"/>
	</g>
</g>
</svg>
