<?xml version="1.0" encoding="utf-8"?>
<!-- Generator: Adobe Illustrator 24.0.1, SVG Export Plug-In . SVG Version: 6.00 Build 0)  -->
<svg version="1.1" id="图层_1" xmlns="http://www.w3.org/2000/svg" xmlns:xlink="http://www.w3.org/1999/xlink" x="0px" y="0px"
	 viewBox="0 0 14.8 14" style="enable-background:new 0 0 14.8 14;" xml:space="preserve">
<path d="M13.8,8.2C13.4,8.2,13,8.6,13,9v3.4c0,0,0,0,0,0H1.6c0,0,0,0,0,0V2.2c0,0,0,0,0,0h2.8c0.4,0,0.8-0.3,0.8-0.8
	c0-0.4-0.3-0.8-0.8-0.8c0,0,0,0,0,0H1.6C0.7,0.6,0,1.3,0,2.2v10.2C0,13.3,0.7,14,1.6,14H13c0.9,0,1.6-0.7,1.6-1.6V9
	C14.6,8.6,14.3,8.2,13.8,8.2z"/>
<path d="M7.1,10.7c0,0,0.2-1.7,1.1-3.4c1-1.8,2.5-3,4.4-3.5l-1,2.8c-0.1,0.4,0.1,0.9,0.5,1c0.4,0.1,0.8-0.1,1-0.5l1.6-4.5
	c0.1-0.4-0.1-0.9-0.5-1c0,0,0,0,0,0L9.8,0c-0.4-0.1-0.9,0.1-1,0.5C8.7,1,8.9,1.4,9.3,1.5l2.5,0.9C9.7,3.1,8,4.5,6.9,6.6
	c-1.1,2-1.3,3.8-1.3,3.9c0,0.4,0.3,0.8,0.7,0.9c0,0,0,0,0,0C6.7,11.4,7.1,11.1,7.1,10.7z"/>
</svg>
