<?xml version="1.0" encoding="utf-8"?>
<!-- Generator: Adobe Illustrator 24.0.1, SVG Export Plug-In . SVG Version: 6.00 Build 0)  -->
<svg version="1.1" id="图层_1" xmlns="http://www.w3.org/2000/svg" xmlns:xlink="http://www.w3.org/1999/xlink" x="0px" y="0px"
	 viewBox="0 0 14 14" style="enable-background:new 0 0 14 14;" xml:space="preserve">
<style type="text/css">
	.st0{fill:#FF0000;}
</style>
<path class="st0" d="M9.8,4.2C9.6,4,9.3,4,9.1,4.2c0,0,0,0,0,0L7,6.3L4.9,4.2C4.7,4,4.4,4,4.2,4.2C4,4.4,4,4.7,4.2,4.9L6.3,7
	L4.2,9.1C4,9.3,4,9.6,4.2,9.8c0.2,0.2,0.5,0.2,0.7,0c0,0,0,0,0,0L7,7.7l2.1,2.1c0.2,0.2,0.5,0.2,0.7,0c0,0,0,0,0,0l0,0
	c0.2-0.2,0.2-0.5,0-0.7L7.7,7l2.1-2.1C10,4.7,10,4.4,9.8,4.2L9.8,4.2z M7,0C3.1,0,0,3.1,0,7s3.1,7,7,7s7-3.1,7-7l0,0
	C14,3.1,10.9,0,7,0z M11.3,11.3c-2.4,2.3-6.2,2.3-8.5,0c-2.3-2.4-2.3-6.2,0-8.5c2.4-2.4,6.2-2.4,8.5,0S13.6,8.9,11.3,11.3L11.3,11.3
	L11.3,11.3z"/>
</svg>
