<svg id="图层_1" data-name="图层 1" xmlns="http://www.w3.org/2000/svg" viewBox="0 0 12 12"><defs><style>.cls-1{fill:#ff0000;}</style></defs><path class="cls-1" d="M12.05,8.23a.42.42,0,0,0-.6,0L9.64,10,7.83,8.23a.42.42,0,0,0-.6.6l1.82,1.81L7.23,12.45a.43.43,0,0,0,0,.6.42.42,0,0,0,.6,0l1.81-1.81,1.81,1.81a.41.41,0,0,0,.59,0h0a.42.42,0,0,0,0-.59l-1.82-1.82,1.82-1.81a.43.43,0,0,0,0-.6ZM9.64,4.64a6,6,0,1,0,6,6,6,6,0,0,0-6-6Zm3.65,9.65a5.19,5.19,0,0,1-7.3,0A5.17,5.17,0,0,1,6,7a5.16,5.16,0,0,1,7.3,7.3Zm0,0" transform="translate(-3.64 -4.64)"/></svg>