<?xml version="1.0" encoding="utf-8"?>
<!-- Generator: Adobe Illustrator 24.0.1, SVG Export Plug-In . SVG Version: 6.00 Build 0)  -->
<svg version="1.1" id="图层_1" xmlns="http://www.w3.org/2000/svg" xmlns:xlink="http://www.w3.org/1999/xlink" x="0px" y="0px"
	 viewBox="0 0 17.5 14" style="enable-background:new 0 0 17.5 14;" xml:space="preserve">
<style type="text/css">
	.st0{fill:#0075FF;}
</style>
<path class="st0" d="M14.6,3.8c0.2,0,0.4,0.1,0.7,0.2c0.2,0.1,0.4,0.3,0.6,0.5c0.2,0.2,0.3,0.5,0.4,0.7c0.1,0.4,0.1,0.7,0,1.1
	c0,0.1-0.1,0.4-0.1,0.8l-0.2,1.5c-0.1,0.6-0.2,1.2-0.3,1.7s-0.2,1.1-0.3,1.5c-0.1,0.3-0.1,0.5-0.3,0.8c-0.1,0.3-0.3,0.5-0.4,0.7
	c-0.2,0.2-0.4,0.4-0.6,0.5C13.6,13.9,13.3,14,13,14H3.4c-0.3,0-0.5-0.1-0.8-0.2c-0.3-0.1-0.5-0.3-0.7-0.5c-0.2-0.2-0.4-0.5-0.5-0.8
	c-0.1-0.3-0.2-0.7-0.2-1.1V2.7c0-0.7,0.2-1.4,0.6-1.9C2.2,0.2,2.8,0,3.4,0h8.5c0.3,0,0.5,0.1,0.8,0.2c0.3,0.1,0.5,0.3,0.7,0.5
	c0.2,0.2,0.4,0.4,0.5,0.7c0.1,0.3,0.2,0.6,0.2,0.9v0.2H5.4c-0.3,0-0.5,0.1-0.7,0.3C4.5,3.1,4.4,3.4,4.3,3.7C4.2,4.1,4.1,4.5,4,4.9
	C3.9,5.4,3.8,5.8,3.7,6.2S3.5,7.1,3.3,7.5c0,0.1,0,0.2,0,0.3c0,0.2,0.1,0.4,0.2,0.6C3.7,8.5,3.8,8.6,4,8.6c0.4,0,0.6-0.3,0.7-0.8
	l0.9-4h4.1L14.6,3.8z"/>
<path class="st0" d="M15.6,3.8c0.3,0,0.5,0.1,0.8,0.2c0.3,0.1,0.5,0.3,0.7,0.5c0.2,0.2,0.3,0.5,0.4,0.7c0.1,0.4,0.1,0.7,0,1.1
	c0,0.1-0.1,0.4-0.2,0.8L17,8.6c-0.1,0.6-0.2,1.2-0.4,1.7s-0.3,1.1-0.4,1.5c-0.1,0.3-0.2,0.5-0.3,0.8c-0.1,0.3-0.3,0.5-0.5,0.7
	c-0.2,0.2-0.5,0.4-0.7,0.5c-0.3,0.1-0.7,0.2-1,0.2H2.5c-0.3,0-0.6-0.1-0.9-0.2c-0.3-0.1-0.6-0.3-0.8-0.5c-0.3-0.2-0.5-0.5-0.6-0.8
	C0,12.1,0,11.8,0,11.4V2.7C0,2,0.2,1.3,0.7,0.7C1.2,0.2,1.8,0,2.5,0h9.9c0.3,0,0.6,0.1,0.9,0.2c0.3,0.1,0.6,0.3,0.9,0.5
	c0.3,0.2,0.5,0.4,0.6,0.7c0.2,0.3,0.2,0.6,0.2,0.9v0.2H4.8C4.5,2.5,4.2,2.6,4,2.8C3.8,3.1,3.7,3.4,3.6,3.7C3.5,4.1,3.4,4.5,3.2,4.9
	C3.1,5.4,3,5.8,2.9,6.2S2.6,7.1,2.4,7.5c0,0.1,0,0.2,0,0.3c0,0.2,0.1,0.4,0.2,0.6C2.8,8.5,3,8.6,3.2,8.6c0.4,0,0.7-0.3,0.9-0.8
	l1.1-4H10L15.6,3.8z"/>
</svg>
