<?xml version="1.0" encoding="utf-8"?>
<!-- Generator: Adobe Illustrator 24.0.1, SVG Export Plug-In . SVG Version: 6.00 Build 0)  -->
<svg version="1.1" id="图层_1" xmlns="http://www.w3.org/2000/svg" xmlns:xlink="http://www.w3.org/1999/xlink" x="0px" y="0px"
	 viewBox="0 0 12 14" style="enable-background:new 0 0 12 14;" xml:space="preserve">
<title>FilterIco</title>
<path d="M8.1,7.5v4.1c0,0.6-0.4,1.2-0.9,1.5l-1.9,0.8c-0.5,0.2-1.1,0-1.3-0.5c-0.1-0.1-0.1-0.3-0.1-0.5V7.5L0.3,2
	c-0.4-0.5-0.4-1.3,0.1-1.7C0.7,0.1,1,0,1.3,0h9.5c1.1,0,1.6,1.1,1,2L8.1,7.5z M5.1,12.6l1.6-0.7c0.1-0.1,0.2-0.2,0.2-0.3V7.3
	c0-0.1,0-0.2,0.1-0.3l3.7-5.7H1.3L5,7c0.1,0.1,0.1,0.2,0.1,0.4L5.1,12.6z"/>
</svg>
