<?xml version="1.0" encoding="UTF-8"?>
<svg id="_图层_1" data-name="图层 1" xmlns="http://www.w3.org/2000/svg" viewBox="0 0 10.53 14">
  <defs>
    <style>
      .cls-1 {
        fill: #0075FF;
      }
    </style>
  </defs>
  <path class="cls-1" d="M1.6,7.57h3.5c.35,0,.64,.29,.64,.64,0,.05,0,.1-.02,.15l-.61,2.53,3.42-4.07h-2.35c-.35,0-.64-.29-.64-.64,0-.09,.02-.18,.06-.26L7.69,1.27h-3.39S1.6,7.57,1.6,7.57h0Zm2.26,6.43c-.35,0-.64-.29-.64-.64,0-.05,0-.1,.02-.15l1.05-4.37H.64C.28,8.84,0,8.56,0,8.21c0-.09,.02-.17,.05-.25L3.29,.39C3.39,.15,3.62,0,3.88,0h4.79c.35,0,.64,.29,.64,.64,0,.09-.02,.18-.06,.26l-2.08,4.64h2.73c.35,0,.64,.29,.64,.64,0,.15-.05,.29-.15,.41l-6.04,7.19c-.12,.14-.3,.23-.49,.23Z"/>
</svg>