<?xml version="1.0" encoding="UTF-8"?>
<svg id="_图层_1" data-name="图层 1" xmlns="http://www.w3.org/2000/svg" viewBox="0 0 12.43 14">
  <defs>
    <style>
      .cls-1 {
        fill: #0075FF;
      }
    </style>
  </defs>
  <path class="cls-1" d="M2.21,4.63l.97,.97-.84,1.97h2.82s1.2,1.2,1.2,1.2l-.51,2.12,1.2-1.43,.9,.9-2.87,3.41c-.23,.27-.63,.3-.9,.08-.18-.16-.27-.4-.21-.64l1.05-4.37H1.37c-.35,0-.64-.29-.64-.64,0-.09,.02-.17,.05-.25,0,0,1.43-3.33,1.43-3.33ZM4.62,0h4.79c.35,0,.64,.29,.64,.64,0,.09-.02,.18-.06,.26l-2.08,4.64h2.73c.35,0,.64,.29,.64,.64,0,.15-.05,.29-.15,.41l-1.69,2.02,2.81,2.81c.25,.25,.25,.65,0,.9-.23,.24-.61,.25-.86,.04l-.04-.04L.19,1.17c-.25-.25-.25-.65,0-.9C.42,.03,.8,.01,1.05,.23l.04,.04L3.19,2.36l.85-1.97c.09-.22,.3-.36,.53-.38h.05s0,0,0,0h0Zm4.65,6.81h-1.63l.89,.89s.74-.89,.74-.89ZM5.04,1.27l-.88,2.06,2.31,2.31,1.96-4.37h-3.39Z"/>
</svg>