<svg id="图层_1" data-name="图层 1" xmlns="http://www.w3.org/2000/svg" viewBox="0 0 14 14"><title>FloatIco</title><path d="M310.72,390.9H305a.62.62,0,0,0-.45.19.6.6,0,0,0-.19.45v5.73a.63.63,0,0,0,.64.63h5.72a.63.63,0,0,0,.64-.63v-5.73a.6.6,0,0,0-.19-.45.62.62,0,0,0-.45-.19Zm-7.63,6.37v-1.91h-2.55a.62.62,0,0,0-.63.63v5.73a.63.63,0,0,0,.63.64h5.73a.6.6,0,0,0,.45-.19.62.62,0,0,0,.19-.45v-2.54H305a1.91,1.91,0,0,1-1.91-1.91Zm1.91-7.64h5.72a1.84,1.84,0,0,1,1.35.56,1.8,1.8,0,0,1,.56,1.35v5.73a1.91,1.91,0,0,1-1.91,1.91h-2.54v2.54a1.91,1.91,0,0,1-1.91,1.91h-5.73a1.87,1.87,0,0,1-1.35-.56,1.84,1.84,0,0,1-.56-1.35V396a1.89,1.89,0,0,1,1.91-1.9h2.55v-2.55a1.8,1.8,0,0,1,.56-1.35,1.84,1.84,0,0,1,1.35-.56Zm0,0" transform="translate(-298.63 -389.63)"/></svg>