<?xml version="1.0" encoding="utf-8"?>
<!-- Generator: Adobe Illustrator 24.0.1, SVG Export Plug-In . SVG Version: 6.00 Build 0)  -->
<svg version="1.1" id="图层_1" xmlns="http://www.w3.org/2000/svg" xmlns:xlink="http://www.w3.org/1999/xlink" x="0px" y="0px"
	 viewBox="0 0 12.8 14" style="enable-background:new 0 0 12.8 14;" xml:space="preserve">
<path d="M12.3,9.7c1.4-3,0.2-6.6-2.7-8.2L10.3,0L6.4,1l1.7,3.5L8.8,3c2.2,1.4,2.8,4.3,1.4,6.5c-0.6,1-1.5,1.7-2.6,2
	c-0.2,0.1-0.4,0.1-0.6,0.1l0.8,1.7l0.2-0.1C9.9,12.7,11.5,11.4,12.3,9.7z M4.1,11C1.9,9.6,1.2,6.7,2.6,4.5c0.6-1,1.6-1.7,2.7-2
	c0.2-0.1,0.4-0.1,0.7-0.1L5.1,0.7L4.8,0.8C2.9,1.3,1.4,2.6,0.6,4.3C0,5.7-0.2,7.2,0.2,8.6l0,0c0.4,1.7,1.6,3.1,3.1,4L2.6,14l3.9-1
	L4.8,9.4L4.1,11z"/>
</svg>
