<?xml version="1.0" encoding="UTF-8"?>
<svg id="_图层_1" data-name="图层 1" xmlns="http://www.w3.org/2000/svg" xmlns:xlink="http://www.w3.org/1999/xlink" viewBox="0 0 14.6 14">
  <defs>
    <style>
      .cls-1 {
        fill: #0075FF;
      }

      .cls-2 {
        clip-path: url(#clippath);
      }

      .cls-3 {
        fill: none;
      }
    </style>
    <clipPath id="clippath">
      <rect class="cls-3" width="14.6" height="14"/>
    </clipPath>
  </defs>
  <g class="cls-2">
    <path class="cls-1" d="M.67,13.98H13.94c.37,0,.66-.3,.66-.66v-.66c0-.37-.3-.66-.66-.66H.67c-.37,0-.66,.3-.66,.66v.66c0,.37,.3,.66,.66,.66H.67ZM.67,8H9.3c.37,0,.66-.3,.66-.66v-.66c0-.37-.3-.66-.66-.66H.67C.31,6,.01,6.3,.01,6.67v.66c0,.37,.29,.66,.66,.66H.67ZM.67,2.02H13.94c.37,0,.66-.3,.66-.66V.69c0-.37-.3-.66-.66-.66H.67C.31,.02,0,.32,0,.69v.66C0,1.72,.31,2.02,.67,2.02H.67Zm10.95,3.43v3.12c0,.39,.51,.58,.81,.31l1.7-1.56c.19-.17,.19-.44,0-.62l-1.7-1.56c-.3-.27-.81-.08-.81,.31h0Zm0,0"/>
  </g>
</svg>