<?xml version="1.0" encoding="utf-8"?>
<!-- Generator: Adobe Illustrator 24.0.1, SVG Export Plug-In . SVG Version: 6.00 Build 0)  -->
<svg version="1.1" id="图层_1" xmlns="http://www.w3.org/2000/svg" xmlns:xlink="http://www.w3.org/1999/xlink" x="0px" y="0px"
	 viewBox="0 0 14 14" style="enable-background:new 0 0 14 14;" xml:space="preserve">
<style type="text/css">
	.st0{fill:#C71D23;}
</style>
<path class="st0" d="M7,14c-3.9,0-7-3.1-7-7s3.1-7,7-7s7,3.1,7,7S10.9,14,7,14z M10.5,6.2l-4,0c-0.2,0-0.3,0.2-0.3,0.3l0,0.9
	c0,0.2,0.2,0.3,0.3,0.3H9c0.2,0,0.3,0.2,0.3,0.3v0.2c0,0.6-0.5,1-1,1H5C4.8,9.3,4.7,9.2,4.7,9V5.7c0-0.6,0.5-1,1-1l4.8,0
	c0.2,0,0.3-0.2,0.3-0.3l0-0.9c0-0.2-0.2-0.3-0.3-0.3c0,0,0,0,0,0l-4.8,0c-1.4,0-2.6,1.2-2.6,2.6v4.8c0,0.2,0.2,0.3,0.3,0.3h5.1
	c1.3,0,2.3-1,2.3-2.3v-2C10.9,6.4,10.7,6.2,10.5,6.2L10.5,6.2z"/>
</svg>
