<?xml version="1.0" encoding="utf-8"?>
<!-- Generator: Adobe Illustrator 24.0.1, SVG Export Plug-In . SVG Version: 6.00 Build 0)  -->
<svg version="1.1" id="图层_1" xmlns="http://www.w3.org/2000/svg" xmlns:xlink="http://www.w3.org/1999/xlink" x="0px" y="0px"
	 viewBox="0 0 14 13.4" style="enable-background:new 0 0 14 13.4;" xml:space="preserve">
<style type="text/css">
	.st0{fill:#231F20;}
</style>
<path class="st0" d="M7,0C3.2,0,0,3,0,6.9c0,3,1.9,5.6,4.8,6.5c0.4,0.1,0.5-0.1,0.5-0.3v-1.2C3.3,12.3,2.9,11,2.9,11
	c-0.1-0.4-0.4-0.8-0.8-1C1.5,9.5,2.2,9.5,2.2,9.5C2.6,9.6,3,9.9,3.2,10.2c0.4,0.7,1.3,1,2,0.6c0-0.3,0.2-0.7,0.4-0.9
	C4.2,9.7,2.5,9.1,2.5,6.5c0-0.7,0.2-1.3,0.7-1.9C3,4.1,3.1,3.4,3.3,2.8c0,0,0.6-0.2,1.9,0.7c1.1-0.3,2.4-0.3,3.5,0
	c1.3-0.9,1.9-0.7,1.9-0.7c0.3,0.6,0.3,1.2,0.1,1.8c0.5,0.5,0.7,1.2,0.7,1.8c0,2.6-1.6,3.2-3.2,3.4c0.3,0.3,0.5,0.8,0.5,1.3V13
	c0,0.2,0.1,0.4,0.5,0.3c2.8-0.9,4.8-3.5,4.8-6.5C14,3,10.8,0,7,0"/>
</svg>
