<?xml version="1.0" encoding="UTF-8"?>
<svg id="_图层_1" data-name="图层 1" xmlns="http://www.w3.org/2000/svg" xmlns:xlink="http://www.w3.org/1999/xlink" viewBox="0 0 14 14">
  <defs>
    <style>
      .cls-1 {
        fill: gray;
      }

      .cls-2 {
        clip-path: url(#clippath);
      }

      .cls-3 {
        fill: none;
      }
    </style>
    <clipPath id="clippath">
      <rect class="cls-3" x="0" width="14" height="14"/>
    </clipPath>
  </defs>
  <g class="cls-2">
    <path class="cls-1" d="M6.99,13.98C3.15,13.98,0,10.84,0,7S3.15,0,6.99,0s6.99,3.14,6.99,6.99-3.15,6.99-6.99,6.99h0ZM6.99,.88C3.58,.88,.87,3.59,.87,7s2.71,6.11,6.12,6.11,6.12-2.71,6.12-6.11S10.4,.88,6.99,.88h0Zm0,0"/>
  </g>
  <path class="cls-1" d="M8.39,4.29c.35,.35,.52,.7,.52,1.22,0,.44-.09,.79-.35,1.05,0,.17-.26,.35-.7,.7-.17,.17-.26,.35-.35,.44,0,.09-.09,.17-.09,.35,0,.26-.26,.44-.44,.44-.26,0-.52-.26-.44-.52,0-.17,.09-.35,.09-.44,.09-.26,.44-.61,.96-1.05l.17-.17c.17-.17,.26-.44,.26-.61,0-.26-.09-.52-.26-.7-.17-.26-.44-.35-.79-.35-.44,0-.7,.09-.87,.35-.09,.09-.17,.26-.17,.52s-.26,.44-.44,.44c-.26,0-.52-.26-.44-.61,.09-.44,.26-.7,.44-.96,.35-.35,.87-.52,1.49-.52s1.14,.09,1.4,.44h0Zm-1.05,4.8c.09,.09,.17,.26,.17,.44s-.09,.35-.17,.44c-.17,.09-.26,.17-.44,.17s-.35-.09-.44-.17c-.09-.09-.17-.26-.17-.44s.09-.35,.17-.44c.09-.09,.26-.17,.44-.17s.35,.09,.44,.17h0Zm0,0"/>
</svg>