<?xml version="1.0" encoding="utf-8"?>
<!-- Generator: Adobe Illustrator 24.0.1, SVG Export Plug-In . SVG Version: 6.00 Build 0)  -->
<svg version="1.1" id="图层_1" xmlns="http://www.w3.org/2000/svg" xmlns:xlink="http://www.w3.org/1999/xlink" x="0px" y="0px"
	 viewBox="0 0 15.1 14" style="enable-background:new 0 0 15.1 14;" xml:space="preserve">
<style type="text/css">
	.st0{fill:black;}
</style>
<path class="st0" d="M14.9,5.5L8.6,0.3c-0.5-0.4-1.5-0.4-2,0L0.2,5.5C0,5.7-0.1,5.9,0.1,6.1c0.1,0.2,0.3,0.3,0.5,0.3h0.5v6.1
	c0,0.8,0.6,1.4,1.4,1.4h3.4c0.3,0,0.5-0.2,0.5-0.5V11c0-0.4,0.6-0.8,1.1-0.8s1.1,0.4,1.1,0.8v2.5c0,0.3,0.2,0.5,0.5,0.5h3.5
	c0.8,0,1.3-0.5,1.3-1.4V6.5h0.5c0.2,0,0.4-0.2,0.5-0.4C15.1,5.9,15.1,5.7,14.9,5.5z"/>
</svg>
