<?xml version="1.0" encoding="UTF-8"?>
<svg id="_图层_1" data-name="图层 1" xmlns="http://www.w3.org/2000/svg" viewBox="0 0 21.76 14">
  <defs>
    <style>
      .cls-1 {
        fill: #0075FF;
      }
    </style>
  </defs>
  <path class="cls-1" d="M14.02,13.43c-.34-.01-.67-.14-.92-.36-.07-.07-.08-.18,0-.26h0c.06-.07,.16-.08,.23-.02,0,0,0,0,.01,.01t0,0c.18,.17,.42,.26,.67,.26,.51,0,.92-.41,.92-.92,0-.51-.41-.92-.92-.92H1.49c-.1,0-.19-.08-.19-.19,0-.1,.08-.19,.19-.19H14.02c.71,0,1.29,.58,1.29,1.29s-.58,1.29-1.29,1.29Zm0,.57c-.48,0-.93-.19-1.29-.5-.16-.14-.25-.34-.26-.56,0-.41,.33-.75,.75-.75,.2,0,.39,.08,.53,.22,.07,.07,.17,.1,.26,.09,.2,0,.36-.15,.36-.35,0-.2-.15-.36-.35-.36H1.49c-.41,0-.74-.32-.75-.72,0,0,0,0,0,0v-.02c0-.41,.33-.75,.74-.75,0,0,0,0,0,0H14.02c1.02,0,1.85,.83,1.85,1.85s-.83,1.85-1.85,1.85Zm5.16-1.3c-1.12,0-2.02-.91-2.03-2.02,0-.1,.08-.19,.19-.19,.1,0,.19,.08,.19,.19,0,.91,.72,1.65,1.63,1.66,0,0,.01,0,.02,0h.02c.91,0,1.65-.72,1.65-1.63,0,0,0,0,0-.01v-.02c0-.91-.72-1.65-1.63-1.65,0,0,0,0-.01,0H.75c-.1,0-.19-.08-.19-.19,0-.1,.08-.19,.19-.19H19.18c1.12,0,2.02,.91,2.02,2.02s-.91,2.02-2.02,2.02Zm0,.57c-1.43,0-2.59-1.15-2.59-2.58,0,0,0,0,0-.01,0-.4,.31-.74,.72-.74,0,0,0,0,.01,0h.02c.41,0,.74,.32,.75,.73v.02c0,.6,.48,1.09,1.09,1.09,.6,0,1.09-.48,1.09-1.09,0-.59-.47-1.08-1.06-1.09H.75C.34,9.59,0,9.26,0,8.85v-.02c0-.41,.33-.74,.74-.74,0,0,0,0,.01,0H19.18c1.43,0,2.59,1.16,2.59,2.59s-1.16,2.59-2.59,2.59Zm-2.58-6.45H1.49c-.1,0-.18-.07-.19-.16,0,0,0-.01,0-.02,0-.1,.07-.18,.17-.18,0,0,.01,0,.02,0h15.11c1.52,0,2.76-1.24,2.76-2.76s-1.24-2.76-2.76-2.76c-1.52,.01-2.75,1.24-2.76,2.76,0,.1-.07,.18-.16,.19,0,0-.01,0-.02,0-.1,0-.18-.07-.18-.17,0,0,0-.01,0-.02,0-1.72,1.39-3.12,3.12-3.12,0,0,0,0,0,0,1.73,0,3.12,1.4,3.12,3.12s-1.4,3.12-3.12,3.12Zm0,.57H1.49c-.41,0-.75-.33-.75-.74h0v-.02c0-.41,.33-.74,.74-.74,0,0,0,0,.01,0h15.11c1.21,0,2.19-.98,2.19-2.19,0-1.21-.98-2.19-2.19-2.19h0c-1.21,.02-2.18,.99-2.19,2.19,0,.41-.33,.74-.74,.74,0,0,0,0-.01,0-.4,0-.74-.31-.74-.72,0,0,0,0,0-.01v-.02C12.91,1.65,14.56,0,16.6,0c0,0,0,0,0,0,2.04,0,3.69,1.65,3.69,3.69,0,2.04-1.65,3.69-3.69,3.69h0Zm-5.85-2.78H2.22c-.1,0-.18-.06-.19-.16,0,0,0-.01,0-.02,0-.1,.07-.18,.17-.19,0,0,0,0,.01,0H10.74c.51-.02,.9-.45,.88-.96-.02-.48-.4-.86-.88-.88-.24,0-.48,.1-.66,.26-.07,.07-.18,.08-.26,0,0,0,0,0,0,0h0c-.07-.07-.07-.18,0-.24,0,0,0,0,0,0h0c.51-.5,1.32-.49,1.81,.02s.48,1.32-.02,1.81c-.23,.23-.54,.36-.87,.36Zm0,.57H2.22c-.41,0-.75-.33-.75-.75s.33-.75,.75-.75H10.74c.18,0,.32-.15,.32-.33,0,0,0-.02,0-.03,0-.25-.25-.51-.61-.23-.3,.26-.74,.25-1.02-.03-.29-.28-.3-.75-.01-1.04,0,0,0,0,0,0h0c.35-.36,.82-.55,1.32-.54,1.02,0,1.85,.83,1.85,1.85,0,1.02-.83,1.85-1.85,1.85Z"/>
</svg>