<?xml version="1.0" encoding="utf-8"?>
<!-- Generator: Adobe Illustrator 24.0.1, SVG Export Plug-In . SVG Version: 6.00 Build 0)  -->
<svg version="1.1" id="图层_1" xmlns="http://www.w3.org/2000/svg" xmlns:xlink="http://www.w3.org/1999/xlink" x="0px" y="0px"
	 viewBox="0 0 15.6 14" style="enable-background:new 0 0 15.6 14;" xml:space="preserve">
<path d="M14.4,8c-0.5,0-0.8,0.4-0.8,0.8v3.5c0,0,0,0,0,0H1.7c0,0,0,0,0,0V1.7c0,0,0,0,0,0h2.9c0.5,0,0.8-0.4,0.8-0.8S5.1,0,4.6,0
	c0,0,0,0,0,0H1.7C0.8,0,0,0.7,0,1.7v10.7C0,13.3,0.8,14,1.7,14h11.9c0.9,0,1.7-0.7,1.7-1.7V8.8C15.2,8.4,14.9,8,14.4,8z"/>
<path d="M15.6,0.7c0-0.5-0.5-0.8-0.9-0.7c0,0,0,0,0,0c-0.1,0-2,0.2-4.1,1.4C8.4,2.6,6.9,4.3,6.2,6.5L5.3,3.9c-0.1-0.4-0.6-0.7-1-0.5
	C3.8,3.5,3.6,4,3.8,4.4c0,0,0,0,0,0l1.6,4.7C5.5,9.5,6,9.8,6.4,9.6l0,0l4.7-1.7c0.4-0.2,0.6-0.6,0.5-1.1c-0.2-0.4-0.6-0.6-1-0.5
	L7.7,7.4c0.5-2,1.8-3.5,3.7-4.6c1.8-1,3.5-1.2,3.5-1.2C15.3,1.6,15.6,1.2,15.6,0.7z"/>
</svg>
