<svg id="图层_1" data-name="图层 1" xmlns="http://www.w3.org/2000/svg" viewBox="0 0 17.14 12"><defs><style>.cls-1{fill:black;}</style></defs><path class="cls-1" d="M-324.83-217.56l1.54-1.54h.17a7.62,7.62,0,0,0,6.69-3.43,10.89,10.89,0,0,0-1.71-1.8l1.28-1.12a11.5,11.5,0,0,1,2.4,2.92,9.34,9.34,0,0,1-8.57,5.06,6.41,6.41,0,0,1-1.8-.09Zm-4.8-2.4a12.58,12.58,0,0,1-2-2.57,9.34,9.34,0,0,1,8.57-5.06h.94l-1.71,1.72a7.58,7.58,0,0,0-6,3.34,6.18,6.18,0,0,0,1.2,1.37Zm11.49-8.91,1.2,1.2-10.8,10.8-1.2-1.2Zm0,0" transform="translate(331.6 228.87)"/></svg>