<?xml version="1.0" encoding="utf-8"?>
<!-- Generator: Adobe Illustrator 24.0.1, SVG Export Plug-In . SVG Version: 6.00 Build 0)  -->
<svg version="1.1" id="图层_1" xmlns="http://www.w3.org/2000/svg" xmlns:xlink="http://www.w3.org/1999/xlink" x="0px" y="0px"
	 viewBox="0 0 20 14" style="enable-background:new 0 0 20 14;" xml:space="preserve">
<path d="M7.9,13.2l1.8-1.8h0.2c3.1,0.1,6.1-1.4,7.8-4c-0.6-0.8-1.3-1.5-2-2.1L17.2,4c1.1,1,2.1,2.1,2.8,3.4c-1.9,3.7-5.8,6-10,5.9
	C9.3,13.4,8.6,13.3,7.9,13.2L7.9,13.2z M2.3,10.4C1.4,9.5,0.6,8.5,0,7.4c1.9-3.7,5.8-6,10-5.9h1.1l-2,2c-2.8,0.1-5.4,1.6-7,3.9
	C2.5,8,3,8.5,3.5,9L2.3,10.4z M15.7,0l1.4,1.4L4.5,14l-1.4-1.4L15.7,0z"/>
</svg>
