<?xml version="1.0" encoding="UTF-8"?>
<svg id="_图层_1" data-name="图层 1" xmlns="http://www.w3.org/2000/svg" viewBox="0 0 9.5 14">
  <defs>
    <style>
      .cls-1 {
        fill: #0075FF;
      }
    </style>
  </defs>
  <path class="cls-1" d="M0,13.12c0-.07,.06-.12,.12-.12H5.9c.07,0,.12,.06,.12,.12v.75c0,.07-.06,.13-.12,.13H.12c-.07,0-.12-.06-.12-.13v-.75ZM2.51,.12c0-.07,.06-.12,.12-.12h.69c.07,0,.12,.06,.12,.12V11.77c0,.07-.06,.13-.12,.13h-.69c-.07,0-.12-.06-.12-.13V.12ZM7.63,5.04c0-.36-.29-.65-.65-.65s-.65,.29-.65,.65,.29,.65,.65,.65,.65-.29,.65-.65h0Zm.87,0c0,.84-.68,1.52-1.52,1.52s-1.52-.68-1.52-1.52,.68-1.52,1.52-1.52,1.52,.68,1.52,1.52h0Zm0,0"/>
  <path class="cls-1" d="M7,3c-1.11,0-2,.9-2,2.01,0,.01,0,.03,0,.04h4.01s0-.03,0-.04c0-1.11-.9-2.01-2-2.01h0ZM2.34,12h1.31l.17,1h-1.64l.16-1Zm-.42-1c-.24,0-.45,.18-.49,.42l-.33,2c-.05,.3,.18,.58,.49,.58h2.82c.31,0,.54-.28,.49-.58l-.33-2c-.04-.24-.25-.42-.49-.42H1.91ZM.48,2.78s0-.07,.01-.09c.02-.03,.04-.05,.08-.06L9.15,.32c.07-.02,.13,.02,.15,.09l.19,.72s0,.07-.01,.09c-.02,.03-.04,.05-.08,.06L.83,3.59c-.07,.02-.13-.02-.15-.09l-.19-.72Zm0,0"/>
  <rect class="cls-1" x="6.46" y="1.17" width="1" height="2.14"/>
</svg>