<?xml version="1.0" encoding="utf-8"?>
<!-- Generator: Adobe Illustrator 24.0.1, SVG Export Plug-In . SVG Version: 6.00 Build 0)  -->
<svg version="1.1" id="图层_1" xmlns="http://www.w3.org/2000/svg" xmlns:xlink="http://www.w3.org/1999/xlink" x="0px" y="0px"
	 viewBox="0 0 14 14" style="enable-background:new 0 0 14 14;" xml:space="preserve">
<style type="text/css">
	.st0{fill:black;}
</style>
<path class="st0" d="M4,7c0-0.3-0.3-0.6-0.6-0.6H0.6C0.3,6.4,0,6.7,0,7c0,0.3,0.3,0.6,0.6,0.6h2.8C3.7,7.6,4,7.3,4,7z M13.4,6.4
	h-2.8C10.3,6.4,10,6.7,10,7c0,0.3,0.3,0.6,0.6,0.6h2.8C13.7,7.6,14,7.3,14,7C14,6.7,13.7,6.4,13.4,6.4z M7,10.2
	c-0.3,0-0.6,0.3-0.6,0.6v2.6C6.4,13.7,6.7,14,7,14s0.6-0.3,0.6-0.6v-2.6C7.6,10.5,7.3,10.2,7,10.2z M7,0C6.7,0,6.4,0.3,6.4,0.6v2.8
	C6.4,3.7,6.7,4,7,4s0.6-0.3,0.6-0.6V0.6C7.6,0.3,7.3,0,7,0z M4,9.1l-2,2c-0.2,0.2-0.2,0.6,0,0.8c0.1,0.1,0.3,0.2,0.4,0.2
	c0.2,0,0.3-0.1,0.4-0.2l2-2c0.2-0.2,0.2-0.6,0-0.8C4.6,8.9,4.3,8.9,4,9.1z M9.5,5.1c0.2,0,0.3-0.1,0.4-0.2l2-2
	c0.2-0.2,0.2-0.6,0-0.8c-0.2-0.2-0.6-0.2-0.8,0l-2,2c-0.2,0.2-0.2,0.6,0,0.8C9.2,5,9.4,5.1,9.5,5.1z M10.1,9.2C9.9,9,9.5,9,9.3,9.2
	C9,9.5,9,9.9,9.3,10.1l1.8,1.9c0.1,0.1,0.3,0.2,0.4,0.2c0.2,0,0.3-0.1,0.4-0.2c0.2-0.2,0.2-0.6,0-0.8L10.1,9.2z M2.9,2.1
	C2.6,1.8,2.3,1.8,2,2.1C1.8,2.3,1.8,2.7,2,2.9l2,2C4.1,5,4.3,5.1,4.4,5.1S4.8,5,4.9,4.9c0.2-0.2,0.2-0.6,0-0.8L2.9,2.1z"/>
</svg>
