<?xml version="1.0" encoding="utf-8"?>
<!-- Generator: Adobe Illustrator 24.0.1, SVG Export Plug-In . SVG Version: 6.00 Build 0)  -->
<svg version="1.1" id="图层_1" xmlns="http://www.w3.org/2000/svg" xmlns:xlink="http://www.w3.org/1999/xlink" x="0px" y="0px"
	 viewBox="0 0 17.5 14" style="enable-background:new 0 0 17.5 14;" xml:space="preserve">
<style type="text/css">
	.st0{fill:#000000;}
</style>
<path class="st0" d="M5.8,4.7c0-1.4,1.1-2.9,2.7-2.9c1.7,0,2.7,1.4,2.7,2.8v1.7l-5.4,0L5.8,4.7L5.8,4.7z M12.9,4.7
	c0-2.6-1.9-4.7-4.4-4.7S4.1,2.1,4.1,4.7v1.7l-1.2,0V13c0,0.6,0.4,1,1,1H13c0.6,0,1-0.5,1-1V6.3h-1.1L12.9,4.7L12.9,4.7z M6.9,10.2
	c0-0.9,0.7-1.6,1.6-1.6S10,9.3,10,10.2s-0.7,1.6-1.6,1.6S6.9,11,6.9,10.2z"/>
</svg>
