<?xml version="1.0" encoding="utf-8"?>
<!-- Generator: Adobe Illustrator 24.0.1, SVG Export Plug-In . SVG Version: 6.00 Build 0)  -->
<svg version="1.1" id="图层_1" xmlns="http://www.w3.org/2000/svg" xmlns:xlink="http://www.w3.org/1999/xlink" x="0px" y="0px"
	 viewBox="0 0 15.6 14" style="enable-background:new 0 0 15.6 14;" xml:space="preserve">
<style type="text/css">
	.st0{fill:#0078FF;}
</style>
<path class="st0" d="M10.6,8.9L7.8,6.5L5,8.9L4,7.7l3-2.6V0h1.6v5.1l3,2.6L10.6,8.9z"/>
<path d="M4.7,14H2.3C1.1,14,0,12.4,0,10.5c0-2.8,0.9-6.2,3.1-7.7c0.8-0.5,1.4-0.5,2-0.5h0.8v1.6H5.1c-0.5,0-0.7,0-1.1,0.3
	c-1.4,0.9-2.4,3.6-2.4,6.3c0,1.2,0.6,1.9,0.8,1.9h2.3c0.3,0,0.8-0.4,0.8-1.2v-0.8H7v0.8C7,12.8,6,14,4.7,14z M13.2,14h-2.3
	c-1.3,0-2.3-1.2-2.3-2.7v-0.8h1.6v0.8c0,0.7,0.5,1.2,0.8,1.2h2.3c0.2,0,0.8-0.7,0.8-1.9c0-2.8-1-5.4-2.4-6.3
	c-0.4-0.3-0.6-0.3-1.1-0.3H9.7V2.3h0.8c0.6,0,1.2,0,2,0.5c2.1,1.4,3.1,4.9,3.1,7.7C15.6,12.4,14.5,14,13.2,14z"/>
</svg>
