<?xml version="1.0" encoding="utf-8"?>
<!-- Generator: Adobe Illustrator 24.0.1, SVG Export Plug-In . SVG Version: 6.00 Build 0)  -->
<svg version="1.1" id="图层_1" xmlns="http://www.w3.org/2000/svg" xmlns:xlink="http://www.w3.org/1999/xlink" x="0px" y="0px"
	 viewBox="0 0 14 14" style="enable-background:new 0 0 14 14;" xml:space="preserve">
<style type="text/css">
	.st0{fill:black;}
	.st1{fill:black;}
</style>
	<path class="st0" d="M13.4,2.6l-2-2l-0.1-0.1c-0.8-0.7-2.1-0.7-2.9,0.1L0.6,8.5L0.5,8.6c-0.7,0.8-0.7,2.1,0.1,2.8l2,2l0.1,0.1
	c0.8,0.7,2.1,0.7,2.8-0.1l7.9-7.9l0.1-0.1C14.2,4.6,14.2,3.4,13.4,2.6L13.4,2.6z M12.7,4.8l-7.9,7.9c-0.4,0.4-1.1,0.4-1.5,0l-2-2
	c-0.4-0.4-0.4-1.1,0-1.5L2,8.6l0.7,0.7c0.2,0.2,0.5,0.2,0.7,0s0.2-0.5,0-0.7L2.7,7.9l1.2-1.2l1.2,1.2l0,0c0.2,0.2,0.5,0.2,0.7,0
	s0.2-0.5,0-0.7l0,0L4.7,5.9l1.2-1.2l0.7,0.7l0,0c0.2,0.2,0.5,0.2,0.7,0s0.2-0.5,0-0.7l0,0L6.6,3.9l1.2-1.2L9,3.9l0,0
	c0.2,0.2,0.5,0.2,0.7-0.1c0.2-0.2,0.2-0.5,0-0.7L8.6,2l0.6-0.6c0.4-0.4,1.1-0.4,1.5,0l2,2C13.1,3.7,13.1,4.4,12.7,4.8L12.7,4.8z"/>
	<path class="st1" d="M13.1,14H9.9c-0.3,0-0.8-0.2-0.9-0.5L7.4,11c-0.3-0.5-0.2-1,0.2-1.3l0,0c0.5-0.3,0.9-0.3,1.4,0V6.8
	c0-0.6,0.5-1,1.1-1c0.3,0,0.6,0.2,0.8,0.3c0.2,0.2,0.3,0.5,0.3,0.8v1.7l2.1,0.1c0.5,0,0.8,0.5,0.8,0.9V13C14,13.5,13.5,14,13.1,14z
	 M8,10L8,10c-0.2,0.1-0.3,0.4-0.2,0.6l1.5,2.6c0.2,0.2,0.2,0.2,0.5,0.2h3.2c0.3,0,0.5-0.2,0.5-0.5V9.3c0-0.2-0.2-0.3-0.3-0.3h-2.1
	c-0.3,0-0.6-0.3-0.6-0.6V6.8c0-0.2,0-0.3-0.2-0.3c-0.2-0.2-0.2-0.2-0.3-0.2S9.6,6.5,9.6,6.8v4.6l-0.9-1.3C8.5,10,8.2,9.8,8,10z"/>
</svg>
