<?xml version="1.0" encoding="utf-8"?>
<!-- Generator: Adobe Illustrator 24.0.1, SVG Export Plug-In . SVG Version: 6.00 Build 0)  -->
<svg version="1.1" id="_图层_1" xmlns="http://www.w3.org/2000/svg" xmlns:xlink="http://www.w3.org/1999/xlink" x="0px" y="0px"
	 viewBox="0 0 14 14" style="enable-background:new 0 0 14 14;" xml:space="preserve">
<style type="text/css">
	.st0{fill:#2281F0;}
	.st1{fill:#FFFFFF;}
</style>
<path class="st0" d="M13.5,7c0,3.6-2.9,6.5-6.5,6.5S0.5,10.6,0.5,7S3.4,0.5,7,0.5S13.5,3.4,13.5,7L13.5,7L13.5,7z"/>
<path class="st0" d="M7,1C3.7,1,1,3.7,1,7s2.7,6,6,6s6-2.7,6-6S10.3,1,7,1L7,1z M0,7c0-3.9,3.1-7,7-7s7,3.1,7,7s-3.1,7-7,7
	S0,10.9,0,7L0,7z"/>
<path class="st1" d="M7,2.5c0.6,0,1,0.5,1,1v0.2c0,0.4-0.2,0.7-0.5,0.9c-0.3,0.2-0.7,0.2-1,0C6.2,4.4,6,4.1,6,3.7V3.5
	C6,2.9,6.4,2.5,7,2.5L7,2.5L7,2.5z M7,5.5c0.6,0,1,0.5,1,1v4c0,0.4-0.2,0.7-0.5,0.9c-0.3,0.2-0.7,0.2-1,0C6.2,11.2,6,10.9,6,10.5v-4
	C6,5.9,6.4,5.5,7,5.5L7,5.5L7,5.5z"/>
</svg>
