<?xml version="1.0" encoding="UTF-8"?>
<svg id="_图层_1" data-name="图层 1" xmlns="http://www.w3.org/2000/svg" xmlns:xlink="http://www.w3.org/1999/xlink" viewBox="0 0 14 14">
  <defs>
    <style>
      .cls-1 {
        fill: #fff;
      }

      .cls-3 {
        fill: #2281f0;
      }

      .cls-5 {
        fill: none;
      }
    </style>
    <clipPath id="clippath">
      <rect class="cls-5" x="0" width="14" height="14"/>
    </clipPath>
  </defs>
  <path class="cls-3" d="M13.06,7c0,3.34-2.71,6.06-6.06,6.06S.93,10.34,.93,7,3.65,.94,6.99,.94s6.06,2.71,6.06,6.06h0Zm0,0"/>
  <path class="cls-3" d="M6.99,1.41C3.9,1.41,1.4,3.91,1.4,7s2.51,5.59,5.6,5.59,5.6-2.5,5.6-5.59S10.08,1.41,6.99,1.41h0ZM.47,7C.47,3.39,3.39,.47,6.99,.47s6.53,2.92,6.53,6.52-2.92,6.52-6.53,6.52S.47,10.6,.47,7H.47Zm0,0"/>
  <path class="cls-1" d="M6.99,2.8c.52,0,.93,.42,.93,.93v.23c0,.33-.18,.64-.47,.81-.29,.17-.64,.17-.93,0-.29-.17-.47-.47-.47-.81v-.23c0-.51,.42-.93,.93-.93h0Zm0,2.79c.52,0,.93,.42,.93,.93v3.73c0,.33-.18,.64-.47,.81-.29,.17-.64,.17-.93,0-.29-.17-.47-.47-.47-.81v-3.73c0-.51,.42-.93,.93-.93h0Zm0,0"/>
</svg>