<?xml version="1.0" encoding="utf-8"?>
<!-- Generator: Adobe Illustrator 24.0.1, SVG Export Plug-In . SVG Version: 6.00 Build 0)  -->
<svg version="1.1" id="图层_1" xmlns="http://www.w3.org/2000/svg" xmlns:xlink="http://www.w3.org/1999/xlink" x="0px" y="0px"
	 viewBox="0 0 17.7 14" style="enable-background:new 0 0 17.7 14;" xml:space="preserve">
<path d="M17.4,4l-3.3-3.8C13.8,0.1,13.6,0,13.3,0c-0.3,0-0.6,0.1-0.7,0.3L9.2,4C9.1,4.2,9,4.4,9,4.7c0,0.5,0.4,0.9,0.9,0.9
	c0.3,0,0.5-0.1,0.7-0.3l1.7-1.9v9.6c0,0.6,0.4,0.9,0.9,0.9c0.6,0,1-0.4,1-0.9V3.5L16,5.3c0.2,0.2,0.4,0.3,0.7,0.3c0.6,0,1-0.4,1-0.9
	C17.7,4.5,17.6,4.2,17.4,4z M6.4,6H1C0.4,6,0,6.4,0,7c0,0.6,0.4,1,1,1h5.4c0.6,0,1-0.4,1-1C7.4,6.4,6.9,6,6.4,6z M6.4,11H1
	c-0.6,0-1,0.4-1,1c0,0.6,0.4,1,1,1h5.4c0.6,0,1-0.4,1-1C7.4,11.5,6.9,11,6.4,11z"/>
</svg>
