<?xml version="1.0" encoding="utf-8"?>
<!-- Generator: Adobe Illustrator 24.0.1, SVG Export Plug-In . SVG Version: 6.00 Build 0)  -->
<svg version="1.1" id="图层_1" xmlns="http://www.w3.org/2000/svg" xmlns:xlink="http://www.w3.org/1999/xlink" x="0px" y="0px"
	 viewBox="0 0 17.7 14" style="enable-background:new 0 0 17.7 14;" xml:space="preserve">
<path d="M17.4,10c0.2-0.2,0.3-0.4,0.3-0.7c0-0.5-0.5-0.9-1-0.9c-0.2,0-0.4,0.1-0.7,0.3l-1.7,1.9V0.9c0-0.6-0.4-0.9-1-0.9
	c-0.6,0-0.9,0.4-0.9,0.9v9.6l-1.7-1.9c-0.2-0.2-0.5-0.3-0.7-0.3C9.4,8.3,9,8.8,9,9.3C9,9.6,9.1,9.8,9.2,10l3.4,3.7
	c0.2,0.2,0.4,0.3,0.7,0.3c0.3,0,0.5-0.1,0.8-0.3C14.1,13.7,17.4,10,17.4,10z M6.4,8c0.6,0,1-0.4,1-1c0-0.6-0.4-1-1-1H1
	C0.4,6,0,6.4,0,7c0,0.6,0.4,1,1,1H6.4z M6.4,3c0.6,0,1-0.4,1-1s-0.4-1-1-1H1C0.4,1,0,1.4,0,2c0,0.6,0.4,1,1,1H6.4z"/>
</svg>
