<?xml version="1.0" encoding="utf-8"?>
<!-- Generator: Adobe Illustrator 24.0.1, SVG Export Plug-In . SVG Version: 6.00 Build 0)  -->
<svg version="1.1" id="图层_1" xmlns="http://www.w3.org/2000/svg" xmlns:xlink="http://www.w3.org/1999/xlink" x="0px" y="0px"
	 viewBox="0 0 14 14" style="enable-background:new 0 0 14 14;" xml:space="preserve">
<style type="text/css">
	.st0{fill:#000000;}
</style>
<path class="st0" d="M13.4,4.3c-0.4-0.8-0.9-1.6-1.5-2.2c-0.6-0.6-1.4-1.1-2.2-1.5C8.9,0.2,7.9,0,7,0S5.1,0.2,4.3,0.5
	C3.4,0.9,2.7,1.4,2,2S0.9,3.4,0.5,4.3C0.2,5.1,0,6,0,7c0,0.9,0.2,1.9,0.6,2.7c0.4,0.8,0.9,1.6,1.5,2.2c0.6,0.6,1.4,1.1,2.2,1.5
	C5.1,13.8,6.1,14,7,14s1.9-0.2,2.7-0.6c0.8-0.4,1.6-0.9,2.2-1.5c0.6-0.6,1.1-1.4,1.5-2.2C13.8,8.9,14,7.9,14,7S13.8,5.1,13.4,4.3z
	 M7.5,4.8c0.3,0,0.6,0,0.9,0c0.5,0,1-0.1,1.5-0.1c0.2,0.6,0.3,1.2,0.3,1.8H7.5V4.8z M7.5,3.8V1.4c0.3,0.2,0.6,0.5,1,0.9
	c0.4,0.4,0.7,0.9,1,1.4C8.8,3.7,8.1,3.8,7.5,3.8z M6.5,1.4v2.3c-0.6,0-1.1,0-1.7-0.1c-0.1,0-0.1,0-0.2,0c0.2-0.5,0.6-1,0.9-1.4
	C5.9,1.9,6.2,1.6,6.5,1.4z M4.7,4.7c0.6,0,1.2,0.1,1.8,0.1v1.7H3.9c0-0.6,0.1-1.2,0.3-1.8C4.4,4.7,4.6,4.7,4.7,4.7z M2.9,6.5H1.1
	C1.1,5.7,1.3,5,1.6,4.4C2,4.4,2.5,4.5,3.2,4.6C3,5.2,2.9,5.8,2.9,6.5z M2.9,7.5c0,0.6,0.2,1.3,0.4,1.9C2.5,9.5,2,9.6,1.6,9.6
	C1.3,9,1.1,8.3,1.1,7.5L2.9,7.5L2.9,7.5z M3.9,7.5h2.6v1.7c-0.6,0-1.2,0-1.8,0.1c-0.1,0-0.3,0-0.4,0C4.1,8.7,3.9,8.1,3.9,7.5z
	 M6.5,10.2v2.1c-0.3-0.3-0.6-0.6-0.9-1C5.3,11,5,10.7,4.8,10.3C5.4,10.3,5.9,10.2,6.5,10.2z M7.5,12.4v-2.2c0.6,0,1.1,0,1.8,0.1
	c-0.2,0.4-0.5,0.7-0.8,1.1C8.2,11.8,7.8,12.2,7.5,12.4z M8.4,9.2c-0.3,0-0.6,0-0.9,0V7.5h2.7c0,0.6-0.2,1.2-0.4,1.8
	C9.3,9.3,8.8,9.2,8.4,9.2z M11.2,7.5h1.7c-0.1,0.7-0.3,1.5-0.6,2.1c-0.5-0.1-1-0.2-1.5-0.2C11.1,8.8,11.2,8.1,11.2,7.5z M11.2,6.5
	c0-0.7-0.1-1.3-0.3-1.9c0.5-0.1,1-0.1,1.5-0.2c0.3,0.7,0.5,1.4,0.6,2.1H11.2z M11.2,2.8c0.2,0.2,0.4,0.4,0.6,0.6
	c-0.4,0.1-0.8,0.1-1.2,0.2c-0.3-0.8-0.7-1.4-1.3-2c0,0-0.1-0.1-0.1-0.1C9.9,1.7,10.6,2.2,11.2,2.8z M4.9,1.4c0,0-0.1,0.1-0.1,0.1
	c-0.5,0.6-1,1.3-1.3,2C3,3.5,2.6,3.5,2.2,3.4C2.4,3.2,2.6,3,2.8,2.8C3.4,2.2,4.1,1.7,4.9,1.4z M2.8,11.2c-0.2-0.2-0.4-0.4-0.5-0.6
	c0.4-0.1,0.9-0.1,1.4-0.2C4,11,4.3,11.5,4.8,12.1c0.2,0.2,0.4,0.4,0.6,0.6C4.4,12.5,3.5,11.9,2.8,11.2z M8.7,12.7
	c0.2-0.2,0.4-0.4,0.5-0.6c0.4-0.5,0.8-1.1,1.1-1.7c0.5,0,0.9,0.1,1.4,0.2c-0.2,0.2-0.3,0.4-0.5,0.6C10.5,11.9,9.7,12.4,8.7,12.7z"/>
</svg>
