<?xml version="1.0" encoding="utf-8"?>
<!-- Generator: Adobe Illustrator 24.0.1, SVG Export Plug-In . SVG Version: 6.00 Build 0)  -->
<svg version="1.1" id="图层_1" xmlns="http://www.w3.org/2000/svg" xmlns:xlink="http://www.w3.org/1999/xlink" x="0px" y="0px"
	 viewBox="0 0 17.4 14" style="enable-background:new 0 0 17.4 14;" xml:space="preserve">
<style type="text/css">
	.st0{fill:black;}
</style>
<path class="st0" d="M16.9,2.3c-0.3-0.3-0.7-0.5-1.2-0.5h-7L7,0H1.7C1.3,0,0.8,0.2,0.5,0.5C0.2,0.9,0,1.3,0,1.8v10.5
	c0,0.5,0.2,0.9,0.5,1.2C0.9,13.8,1.3,14,1.7,14h14c0.5,0,0.9-0.2,1.2-0.5c0.3-0.3,0.5-0.8,0.5-1.2V3.5C17.4,3,17.3,2.6,16.9,2.3z
	 M12.8,8.9c0,0.1-0.1,0.2-0.2,0.2H9.9v2.7c0,0.1-0.1,0.2-0.2,0.2H7.8c-0.1,0-0.2-0.1-0.2-0.2V9.1H4.9C4.8,9.1,4.6,9,4.6,8.9V7
	c0-0.1,0.1-0.2,0.2-0.2h2.7V4.1c0-0.1,0.1-0.2,0.2-0.2h1.9c0.1,0,0.2,0.1,0.2,0.2v2.7h2.7c0.1,0,0.2,0.1,0.2,0.2
	C12.8,7,12.8,8.9,12.8,8.9z"/>
</svg>
