<?xml version="1.0" encoding="UTF-8"?>
<svg id="_图层_1" data-name="图层 1" xmlns="http://www.w3.org/2000/svg" viewBox="0 0 13.26 14">
  <defs>
    <style>
      .cls-1 {
        fill: #0075FF;
      }
    </style>
  </defs>
  <path class="cls-1" d="M6.98,1.46l4.23,5.54-4.38,5.54c-.13,.16-.2,.36-.21,.56,0,.27,.12,.52,.32,.69,.38,.32,.94,.27,1.26-.11,0,0,0,0,0,0l4.84-6.1c.27-.33,.27-.81,0-1.14L8.37,.33c-.31-.39-.87-.45-1.26-.14,0,0,0,0,0,0-.18,.15-.3,.37-.32,.6-.02,.24,.05,.47,.2,.66Zm-.55,6.11c.27-.33,.27-.81,0-1.14L1.74,.33C1.43-.05,.86-.11,.48,.2c0,0,0,0,0,0C.09,.51,.03,1.07,.34,1.46c0,0,0,0,0,0L4.58,7,.21,12.54C.07,12.7,0,12.9,0,13.1c0,.49,.4,.9,.89,.9,.03,0,.06,0,.08,0,.24-.02,.46-.14,.61-.32L6.43,7.57Z"/>
</svg>