<?xml version="1.0" encoding="UTF-8"?>
<svg id="_图层_1" data-name="图层 1" xmlns="http://www.w3.org/2000/svg" xmlns:xlink="http://www.w3.org/1999/xlink" viewBox="0 0 14 14">
  <defs>
    <style>
      .cls-1 {
        fill: #fccf6d;
      }

      .cls-2 {
        clip-path: url(#clippath);
      }

      .cls-3 {
        fill: none;
      }
    </style>
    <clipPath id="clippath">
      <rect class="cls-3" width="14" height="14"/>
    </clipPath>
  </defs>
  <g class="cls-2">
    <path class="cls-1" d="M9.98,8.64c-.21,0-.41-.08-.56-.23l-.84-.85,1.11-1.13,.28,.29,1.39-1.41c.76-.78,.76-2.04,0-2.82-.78-.76-2-.76-2.78,0l-1.38,1.41,.24,.25-1.11,1.13-.78-.8c-.3-.31-.3-.81,0-1.13l1.95-1.98c1.38-1.4,3.62-1.4,5,0,1.38,1.4,1.38,3.68,0,5.08l-1.96,1.95c-.15,.15-.35,.23-.56,.23h0ZM3.87,13.69c-1.43,0-2.71-.88-3.26-2.22-.55-1.34-.24-2.88,.76-3.91l1.95-1.98c.31-.31,.8-.31,1.11,0l.84,.85-1.11,1.13-.29-.29-1.38,1.4c-.74,.78-.74,2.03,.02,2.8,.76,.77,1.98,.78,2.75,.03l1.39-1.41-.25-.26,1.11-1.13,.78,.8c.15,.15,.23,.35,.23,.57s-.08,.42-.23,.57l-1.91,1.99c-.66,.68-1.56,1.06-2.5,1.05h0Zm6.54,.29c-.36,.01-.69-.23-.78-.59l-.44-1.66c-.1-.42,.15-.84,.56-.95,.41-.11,.83,.13,.95,.54l.44,1.66c.06,.21,.03,.42-.08,.61-.1,.18-.28,.32-.48,.37-.06,.01-.11,.02-.17,.02h0Zm2.69-2.73c-.07,.01-.14,.01-.2,0l-1.63-.45c-.42-.11-.67-.55-.56-.97,.05-.21,.19-.38,.37-.49,.18-.11,.4-.13,.6-.08l1.63,.45c.43,.06,.74,.46,.68,.9-.06,.44-.45,.75-.89,.69v-.06ZM2.4,4.8c-.07,0-.14,0-.2,0l-1.64-.47C.15,4.2-.08,3.77,.03,3.36c.11-.42,.52-.67,.94-.57l1.63,.45c.43,.06,.74,.46,.69,.9-.05,.44-.45,.75-.88,.7v-.03Zm1.49-1.52c-.36,.01-.69-.23-.78-.59l-.41-1.66c-.06-.21-.03-.42,.08-.61,.1-.18,.28-.32,.48-.37,.2-.05,.42-.02,.6,.09,.18,.11,.31,.28,.36,.49l.44,1.65c.06,.21,.03,.42-.08,.61-.1,.18-.28,.32-.48,.37-.07,.02-.14,.02-.2,.02h0Zm0,0"/>
  </g>
</svg>