<?xml version="1.0" encoding="utf-8"?>
<!-- Generator: Adobe Illustrator 24.0.1, SVG Export Plug-In . SVG Version: 6.00 Build 0)  -->
<svg version="1.1" id="图层_1" xmlns="http://www.w3.org/2000/svg" xmlns:xlink="http://www.w3.org/1999/xlink" x="0px" y="0px"
	 viewBox="0 0 14 14" style="enable-background:new 0 0 14 14;" xml:space="preserve">
<style type="text/css">
	.st0{clip-path:url(#SVGID_2_);}
	.st1{fill:#389751;}
</style>
<g>
	<defs>
		<rect id="SVGID_1_" width="14" height="14"/>
	</defs>
	<clipPath id="SVGID_2_">
		<use xlink:href="#SVGID_1_"  style="overflow:visible;"/>
	</clipPath>
	<g class="st0">
		<path class="st1" d="M7,14c-3.9,0-7-3.1-7-7s3.1-7,7-7s7,3.1,7,7S10.9,14,7,14z M7,1.1C3.8,1.1,1.2,3.8,1.2,7s2.6,5.8,5.8,5.8
			s5.8-2.6,5.8-5.8S10.2,1.1,7,1.1z"/>
	</g>
</g>
<path class="st1" d="M9.7,5.1c-0.2-0.2-0.6-0.2-0.8,0c0,0,0,0,0,0L6.4,7.6L5.1,6.4c-0.2-0.2-0.5-0.2-0.8,0L4.3,6.5
	C4.1,6.7,4.1,7,4.3,7.2L6,8.9c0.2,0.2,0.5,0.2,0.8,0L9.7,6C9.9,5.8,9.9,5.4,9.7,5.1L9.7,5.1z"/>
</svg>
