<?xml version="1.0" encoding="UTF-8"?>
<svg id="_图层_1" data-name="图层 1" xmlns="http://www.w3.org/2000/svg" xmlns:xlink="http://www.w3.org/1999/xlink" viewBox="0 0 14 14">
  <defs>
    <style>
      .cls-1 {
        fill: #80ce80;
      }

      .cls-2 {
        clip-path: url(#clippath);
      }

      .cls-3 {
        fill: none;
      }
    </style>
    <clipPath id="clippath">
      <rect class="cls-3" x="0" y="0" width="14" height="14"/>
    </clipPath>
  </defs>
  <g class="cls-2">
    <path class="cls-1" d="M10.3,8.67c-.22,0-.44-.09-.6-.24l-.9-.9,1.19-1.18,.3,.3,1.48-1.49c.53-.53,.74-1.31,.54-2.03-.19-.73-.76-1.29-1.48-1.49-.72-.19-1.5,.01-2.03,.54l-1.48,1.49,.27,.27-1.18,1.18-.84-.84c-.16-.16-.24-.37-.24-.6,0-.22,.09-.44,.24-.6L7.65,1.01c1.49-1.39,3.8-1.35,5.24,.09,1.44,1.44,1.48,3.76,.09,5.25l-2.08,2.08c-.17,.16-.39,.24-.61,.23h0ZM3.77,13.98c-1.53,0-2.9-.92-3.49-2.33-.58-1.41-.26-3.04,.82-4.12l2.07-2.08c.16-.16,.37-.25,.6-.25s.44,.09,.6,.25l.9,.9-1.19,1.18-.3-.3-1.48,1.49c-.39,.39-.61,.93-.61,1.49,0,.85,.51,1.62,1.29,1.94,.78,.33,1.69,.15,2.29-.46l1.48-1.49-.27-.27,1.18-1.19,.84,.84c.33,.33,.33,.86,0,1.18l-2.08,2.08c-.7,.71-1.65,1.12-2.64,1.13h0Zm0,0"/>
  </g>
  <path class="cls-1" d="M5.28,9.53c-.22,0-.44-.09-.6-.24-.16-.16-.25-.37-.25-.6s.09-.44,.25-.6l3.48-3.48c.33-.29,.83-.27,1.14,.04,.31,.31,.33,.81,.04,1.14l-3.47,3.49c-.16,.16-.37,.24-.6,.24h0Zm0,0"/>
</svg>