<?xml version="1.0" encoding="utf-8"?>
<!-- Generator: Adobe Illustrator 24.0.1, SVG Export Plug-In . SVG Version: 6.00 Build 0)  -->
<svg version="1.1" id="图层_1" xmlns="http://www.w3.org/2000/svg" xmlns:xlink="http://www.w3.org/1999/xlink" x="0px" y="0px"
	 viewBox="0 0 12.2 14" style="enable-background:new 0 0 12.2 14;" xml:space="preserve">
<path d="M2.2,0H0.9C0.4,0,0,0.3,0,0.8c0,0,0,0,0,0v12.4C0,13.7,0.4,14,0.9,14c0,0,0,0,0,0h1.4c0.5,0,0.8-0.3,0.8-0.8V0.8
	C3,0.3,2.7,0,2.2,0L2.2,0z M11.4,0H9.9C9.5,0,9.1,0.3,9.1,0.8v12.4c0,0.5,0.4,0.8,0.8,0.8h1.4c0.5,0,0.8-0.3,0.8-0.8V0.8
	C12.2,0.3,11.8,0,11.4,0z"/>
</svg>
