<?xml version="1.0" encoding="UTF-8"?>
<svg id="_图层_1" data-name="图层 1" xmlns="http://www.w3.org/2000/svg" viewBox="0 0 14 14">
  <defs>
    <style>
      .cls-1 {
        fill: #0075FF;
      }
    </style>
  </defs>
  <path class="cls-1" d="M11.81,4.81V2.12c0-.23-.09-.46-.26-.62l-1.25-1.24c-.16-.16-.39-.25-.62-.25H2.19V4.81h-.88c-.72,0-1.31,.59-1.31,1.31v5.25H2.19v1.75c0,.48,.39,.88,.88,.88h7.88c.48,0,.88-.39,.88-.88v-1.75h2.19V4.81h-2.19ZM3.06,.88h6.54c.06,0,.11,.02,.15,.06l1.12,1.11s.06,.1,.06,.16V7.22H3.06V.88Zm7.44,12.25H3.5c-.24,0-.44-.2-.44-.44v-2.84h7.88v2.84c0,.24-.2,.44-.44,.44Zm2.62-2.62h-1.31v-1.53H2.19v1.53H.88V6.12c0-.24,.2-.44,.44-.44h.88v2.41H11.81v-2.41h1.31v4.81Z"/>
  <path class="cls-1" d="M12.47,5.91c-.24,0-.44,.2-.44,.44s.2,.44,.44,.44,.44-.2,.44-.44-.2-.44-.44-.44Z"/>
</svg>