<?xml version="1.0" encoding="UTF-8"?>
<svg id="_图层_1" data-name="图层 1" xmlns="http://www.w3.org/2000/svg" viewBox="0 0 14 14">
  <defs>
    <style>
      .cls-1 {
        fill: #0075FF;
      }
    </style>
  </defs>
  <path class="cls-1" d="M6.22,3.89v4.67h3.89v-1.3h-2.64V3.89h-1.25Zm.78-3.89c-1.69,0-3.24,.6-4.45,1.6l.33-1.28-1.14-.32-.64,2.45-.32,1.23,1.14,.32,2.43,.67,.32-1.23-1.41-.39c.98-.92,2.29-1.49,3.74-1.49,3.01,0,5.45,2.44,5.45,5.44s-2.44,5.44-5.45,5.44S1.56,10.01,1.56,7c0-.15,.03-.3,.04-.45L.03,6.42c-.01,.19-.03,.38-.03,.58,0,3.87,3.13,7,7,7s7-3.13,7-7S10.87,0,7,0h0Zm0,0"/>
</svg>