<?xml version="1.0" encoding="utf-8"?>
<!-- Generator: Adobe Illustrator 24.0.1, SVG Export Plug-In . SVG Version: 6.00 Build 0)  -->
<svg version="1.1" id="图层_1" xmlns="http://www.w3.org/2000/svg" xmlns:xlink="http://www.w3.org/1999/xlink" x="0px" y="0px"
	 viewBox="0 0 14 14" style="enable-background:new 0 0 14 14;" xml:space="preserve">
<style type="text/css">
	.st0{fill:black;}
</style>
<path class="st0" d="M9.6,0.9c-0.2,0-0.4-0.2-0.4-0.4S9.4,0,9.6,0l0,0h2.6c1,0,1.8,0.8,1.8,1.8v2.6c0,0.2-0.2,0.4-0.4,0.4
	c-0.2,0-0.4-0.2-0.4-0.4c0,0,0,0,0,0V1.8c0-0.5-0.4-0.9-0.9-0.9H9.6z M13.1,9.4c0-0.2,0.2-0.4,0.4-0.4C13.8,9,14,9.2,14,9.4
	c0,0,0,0,0,0v2.8c0,1-0.8,1.8-1.8,1.8h-1.7c-0.2,0-0.4-0.2-0.4-0.4c0-0.2,0.2-0.4,0.4-0.4c0,0,0,0,0,0h1.7c0.5,0,0.9-0.4,0.9-0.9
	V9.4z M4.6,13.1c0.2,0,0.4,0.2,0.4,0.4C5,13.8,4.8,14,4.6,14c0,0,0,0,0,0H1.8c-1,0-1.8-0.8-1.8-1.8V9.6c0-0.2,0.2-0.4,0.4-0.4
	s0.4,0.2,0.4,0.4l0,0v2.6c0,0.5,0.4,0.9,0.9,0.9C1.8,13.1,4.6,13.1,4.6,13.1z M0.9,4.4c0,0.2-0.2,0.4-0.4,0.4S0,4.6,0,4.4V1.8
	C0,0.8,0.8,0,1.8,0h2.6c0.2,0,0.4,0.2,0.4,0.4S4.6,0.9,4.4,0.9H1.8c-0.5,0-0.9,0.4-0.9,0.9V4.4z M7,9.2c1.5,0,2.9-0.8,4.2-2.4
	C9.9,5.2,8.5,4.4,7,4.4S4.1,5.2,2.8,6.8C4.1,8.4,5.5,9.2,7,9.2z M7,10.1c-1.8,0-3.4-0.9-4.9-2.7C1.8,7,1.8,6.6,2.1,6.2
	C3.6,4.4,5.2,3.5,7,3.5s3.4,0.9,4.9,2.7c0.3,0.3,0.3,0.8,0,1.1C10.4,9.2,8.8,10.1,7,10.1z"/>
<path class="st0" d="M7,7.9c0.6,0,1.1-0.5,1.1-1.1c0-0.6-0.5-1.1-1.1-1.1c0,0,0,0,0,0c-0.6,0-1.1,0.5-1.1,1.1C5.9,7.4,6.4,7.9,7,7.9
	z M7,8.7c-1.1,0-2-0.9-2-2c0-1.1,0.9-2,2-2c0,0,0,0,0,0c1.1,0,2,0.9,2,2S8.1,8.7,7,8.7z"/>
</svg>
