<?xml version="1.0" encoding="UTF-8"?>
<svg id="_图层_1" data-name="图层 1" xmlns="http://www.w3.org/2000/svg" viewBox="0 0 14 14">
  <defs>
    <style>
      .cls-1 {
        fill: #333;
      }

      .cls-2 {
        fill: #d20000;
      }
    </style>
  </defs>
  <path class="cls-1" d="M7,14C3.13,14,0,10.87,0,7S3.13,0,7,0s7,3.13,7,7c0,3.86-3.14,7-7,7h0ZM7,.71C3.52,.71,.71,3.52,.71,7s2.82,6.29,6.29,6.29,6.29-2.82,6.29-6.29c0-3.47-2.82-6.29-6.29-6.29h0Zm0,0"/>
  <path class="cls-2" d="M3.98,7c0,1.08,.58,2.08,1.51,2.61,.93,.54,2.09,.54,3.02,0,.93-.54,1.51-1.54,1.51-2.61,0-1.67-1.35-3.02-3.02-3.02s-3.02,1.35-3.02,3.02h0Zm0,0"/>
  <path class="cls-2" d="M7,10.5c-1.42,0-2.69-.85-3.23-2.16-.54-1.31-.24-2.81,.76-3.81,1-1,2.51-1.3,3.81-.76,1.31,.54,2.16,1.82,2.16,3.23,0,1.93-1.57,3.5-3.5,3.5h0Zm0-6.04c-1.4,0-2.54,1.14-2.54,2.54s1.14,2.54,2.54,2.54,2.54-1.14,2.54-2.54c0-1.4-1.14-2.54-2.54-2.54h0Zm0,0"/>
</svg>