<?xml version="1.0" encoding="UTF-8"?>
<svg id="_图层_1" data-name="图层 1" xmlns="http://www.w3.org/2000/svg" xmlns:xlink="http://www.w3.org/1999/xlink" viewBox="0 0 20.9 14">
  <defs>
    <style>
      .cls-1 {
        fill: #333;
      }

      .cls-2 {
        clip-path: url(#clippath);
      }

      .cls-3 {
        fill: none;
      }

      .cls-4 {
        fill: #0075FF;
      }
    </style>
    <clipPath id="clippath">
      <rect class="cls-3" width="20.9" height="14"/>
    </clipPath>
  </defs>
  <g class="cls-2">
    <path class="cls-1" d="M13.8,13.97H1.69C.76,13.97,0,13.2,0,12.27V1.72C0,.79,.76,.03,1.69,.03H13.8c.93,0,1.7,.76,1.7,1.7V12.27c0,.93-.76,1.7-1.7,1.7h0ZM1.69,1.16c-.31,0-.57,.25-.57,.57V12.27c0,.31,.25,.57,.57,.57H13.8c.31,0,.57-.25,.57-.57V1.72c0-.31-.25-.57-.57-.57H1.69Zm0,0"/>
  </g>
  <path class="cls-4" d="M6.06,10.07c-.19,0-.39-.05-.57-.15-.35-.2-.56-.57-.56-.98v-3.89c0-.41,.21-.78,.56-.98,.36-.2,.77-.2,1.13,0l3.36,1.95c.35,.2,.56,.57,.56,.98s-.21,.78-.57,.98l-3.36,1.94c-.17,.1-.37,.15-.56,.15h0Zm0-5.02v3.88s3.36-1.94,3.36-1.94l-3.36-1.94Zm0,0"/>
  <path class="cls-1" d="M19.69,10.47c-.2,0-.41-.06-.6-.16l-3.74-2.16c-.37-.21-.59-.6-.59-1.02,0-.43,.21-.82,.58-1.05l3.75-2.16c.38-.22,.83-.21,1.19,0,.37,.22,.59,.6,.59,1.03v4.32c0,.43-.23,.82-.6,1.04-.18,.11-.38,.16-.59,.16h0Zm0-5.58s-.03,0-.03,.01l-3.73,2.16s-.03,.03-.03,.06c0,0,.03,.05,.03,.05l3.74,2.16s.03,.02,.06,0c.03-.02,.03-.05,.03-.06V4.96s0-.03-.03-.05c-.01,0-.02-.01-.03-.01h0Zm0,0"/>
</svg>