<?xml version="1.0" encoding="UTF-8"?>
<svg id="_图层_1" data-name="图层 1" xmlns="http://www.w3.org/2000/svg" xmlns:xlink="http://www.w3.org/1999/xlink" viewBox="0 0 14 14">
  <defs>
    <style>
      .cls-1 {
        fill: #0075FF;
      }

      .cls-2 {
        clip-path: url(#clippath);
      }

      .cls-3 {
        fill: none;
      }
    </style>
    <clipPath id="clippath">
      <rect class="cls-3" x="0" width="14" height="14"/>
    </clipPath>
  </defs>
  <g class="cls-2">
    <path class="cls-1" d="M5.79,12.21c-.25,.25-.59,.39-.94,.39s-.69-.14-.94-.39l-.67-.67L.97,13.81c-.21,.21-.56,.22-.78,.02-.22-.2-.25-.54-.06-.78l.04-.04,2.28-2.27-.67-.67c-.5-.5-.52-1.29-.05-1.81l.05-.06L8.2,1.78c.25-.25,.59-.39,.94-.39s.69,.14,.94,.39l.67,.67L13.02,.18c.21-.21,.56-.22,.78-.02,.22,.2,.25,.54,.06,.78l-.04,.04-2.28,2.27,.67,.67c.5,.5,.52,1.29,.05,1.81l-.05,.06-.53,.53h0s-4.55,4.55-4.55,4.55c0,0,0,0,0,0h0s-1.34,1.34-1.34,1.34Zm-2.28-4.14l-.4,.4h0s-.53,.54-.53,.54c-.06,.06-.07,.17-.02,.24l.02,.03,1.07,1.07,1.07,1.07c.07,.07,.19,.07,.27,0l.94-.94-2.41-2.41Zm1.87-1.87l-1.07,1.07,2.41,2.41,1.07-1.07-2.41-2.41h0Zm1.87-1.87l-1.07,1.07,2.41,2.41,1.07-1.07-2.41-2.41Zm2.01-1.74c-.07-.07-.19-.07-.27,0l-.94,.94,2.41,2.41,.4-.4,.54-.53c.07-.07,.07-.19,0-.27l-2.14-2.14Zm0,0"/>
  </g>
</svg>