<?xml version="1.0" encoding="utf-8"?>
<!-- Generator: Adobe Illustrator 24.0.1, SVG Export Plug-In . SVG Version: 6.00 Build 0)  -->
<svg version="1.1" id="图层_1" xmlns="http://www.w3.org/2000/svg" xmlns:xlink="http://www.w3.org/1999/xlink" x="0px" y="0px"
	 viewBox="0 0 14 14" style="enable-background:new 0 0 14 14;" xml:space="preserve">
<path d="M13.3,11.2L13.3,11.2L13.3,11.2L13.3,11.2z"/>
<path d="M12.5,0L8.2,0C8.2,0,8.1,0,8.1,0H1.5C0.7,0,0,0.7,0,1.5v11C0,13.3,0.7,14,1.5,14h2.6c0.8,0,1.5-0.7,1.5-1.5l0-7.2h7.3
	c0,0,0,0,0,0c0.6,0,1.1-0.5,1.1-1V1.5C14,0.7,13.3,0,12.5,0 M13,3.8c0.1,0.6-0.7,0.6-0.7,0.6L5,4.3c0,0-0.1,0-0.1,0c0,0,0,0,0,0
	C4.7,4.5,4.6,4.6,4.6,4.8v7.6C4.6,12.8,4.4,13,4,13H1.6C1.2,13,1,12.8,1,12.4v-1.4h2.4c0.3,0,0.5-0.2,0.5-0.5c0-0.3-0.2-0.5-0.5-0.5
	H1V8.4h1.7c0.3,0,0.5-0.2,0.5-0.5c0-0.3-0.2-0.5-0.5-0.5H1V5.7h2.4c0.3,0,0.5-0.2,0.5-0.5c0-0.3-0.2-0.5-0.5-0.5H1V1.6
	C1,1.2,1.2,1,1.6,1h3v1.8c0,0.3,0.2,0.5,0.5,0.5c0.3,0,0.5-0.2,0.5-0.5l0-1.8h2v1.4c0,0.3,0.2,0.5,0.5,0.5c0.3,0,0.5-0.2,0.5-0.5V1
	h1.7v1.8c0,0.3,0.2,0.5,0.5,0.5c0.3,0,0.5-0.2,0.5-0.5l0-1.8h1.1C12.8,1,13,1.2,13,1.6L13,3.8L13,3.8z"/>
</svg>
