<?xml version="1.0" encoding="utf-8"?>
<!-- Generator: Adobe Illustrator 24.0.1, SVG Export Plug-In . SVG Version: 6.00 Build 0)  -->
<svg version="1.1" id="图层_1" xmlns="http://www.w3.org/2000/svg" xmlns:xlink="http://www.w3.org/1999/xlink" x="0px" y="0px"
	 viewBox="0 0 14 14" style="enable-background:new 0 0 14 14;" xml:space="preserve">
<path d="M9.2,3C8.9,3,8.7,3.2,8.7,3.5v1.3c0,0.3,0.3,0.5,0.6,0.5c0.3,0,0.6-0.2,0.6-0.5V3.5C9.8,3.2,9.5,3,9.2,3z"/>
<path d="M13.8,3.8l-2.5-3.3c-0.2-0.3-0.6-0.5-1-0.5H1.2C0.6,0,0.1,0.5,0.1,1V13c0,0.6,0.5,1,1.1,1H13c0.6,0,1.1-0.5,1.1-1V4.6
	C14.1,4.3,14,4,13.8,3.8z M1.7,1.6h8.8v3.5c0,0.5-0.4,0.9-1,0.9H2.7c-0.6,0-1-0.4-1-0.9V1.6z M11,12.2H3.1c-0.4,0-0.8-0.3-0.8-0.7
	c0-0.4,0.3-0.7,0.8-0.7H11c0.4,0,0.8,0.3,0.8,0.7C11.8,11.9,11.5,12.2,11,12.2z M11,9.5H3.1c-0.4,0-0.8-0.3-0.8-0.7
	c0-0.4,0.3-0.7,0.8-0.7H11c0.4,0,0.8,0.3,0.8,0.7C11.8,9.2,11.5,9.5,11,9.5z"/>
</svg>
