<?xml version="1.0" encoding="UTF-8"?>
<svg id="_图层_1" data-name="图层 1" xmlns="http://www.w3.org/2000/svg" xmlns:xlink="http://www.w3.org/1999/xlink" viewBox="0 0 15.4 14">
  <defs>
    <style>
      .cls-1 {
        fill: #0075FF;
      }

      .cls-2 {
        clip-path: url(#clippath);
      }

      .cls-3 {
        fill: none;
      }
    </style>
    <clipPath id="clippath">
      <rect class="cls-3" x="0" width="15.4" height="14"/>
    </clipPath>
  </defs>
  <g class="cls-2">
    <path class="cls-1" d="M12.6,8.39c-.56,0-1.12,.14-1.54,.49l-2.38-2.45L13.79,1.19c.28-.28,.28-.7,0-.98-.28-.28-.7-.28-.98,0L7.7,5.38,2.59,.21C2.31-.07,1.89-.07,1.61,.21c-.28,.28-.28,.7,0,.98L6.72,6.43l-2.38,2.45c-.42-.35-.98-.49-1.54-.49-1.54,0-2.8,1.26-2.8,2.8s1.26,2.8,2.8,2.8,2.8-1.26,2.8-2.8c0-.49-.14-.91-.35-1.33l2.45-2.45,2.45,2.45c-.21,.42-.35,.84-.35,1.33,0,1.54,1.26,2.8,2.8,2.8s2.8-1.26,2.8-2.8-1.26-2.8-2.8-2.8h0ZM2.8,12.58c-.77,0-1.4-.63-1.4-1.4s.63-1.4,1.4-1.4,1.4,.63,1.4,1.4-.63,1.4-1.4,1.4h0Zm9.8,0c-.77,0-1.4-.63-1.4-1.4s.63-1.4,1.4-1.4,1.4,.63,1.4,1.4-.63,1.4-1.4,1.4h0Zm0,0"/>
  </g>
</svg>