<?xml version="1.0" encoding="utf-8"?>
<!-- Generator: Adobe Illustrator 26.5.0, SVG Export Plug-In . SVG Version: 6.00 Build 0)  -->
<svg version="1.1" id="图层_1" xmlns="http://www.w3.org/2000/svg" xmlns:xlink="http://www.w3.org/1999/xlink" x="0px" y="0px"
	 viewBox="0 0 14 14" style="enable-background:new 0 0 14 14;" xml:space="preserve">
<style type="text/css">
	.st0{fill:#0075FF;}
</style>
<path class="st0" d="M13.9,5.6C13.9,5.6,13.9,5.6,13.9,5.6L13.9,5.6L13.9,5.6c0-0.6-0.4-1-0.9-1h-0.1c-0.8,0-1.4-0.7-1.4-1.5
	c0,0,0,0,0,0c0-0.2,0.1-0.4,0.1-0.5c0.2-0.6-0.1-1.2-0.6-1.5l-1.7-1l0,0C9.2,0,9.1,0,8.9,0C8.6,0,8.3,0.1,8.1,0.4
	C7.7,1,6.9,1.3,6.3,0.9C6.1,0.8,5.9,0.6,5.8,0.4C5.6,0.1,5.3,0,5,0C4.8,0,4.7,0,4.5,0.1l0,0l-1.8,1l0,0C2.3,1.5,2.2,2.1,2.4,2.6l0,0
	C2.5,2.8,2.5,3,2.5,3.2c0,0.8-0.6,1.5-1.4,1.5H1.1c-0.5,0-0.9,0.4-0.9,1l0,0l0,0c0,0,0,0,0,0.1C0,6.6,0,7.5,0.1,8.4c0,0,0,0.1,0,0.1
	l0,0l0,0c0,0.5,0.4,0.9,0.9,0.9l0,0c0.8,0,1.4,0.7,1.4,1.5c0,0.2-0.1,0.4-0.1,0.6c-0.2,0.5,0,1.2,0.5,1.5l0,0l1.7,1l0,0
	C4.6,13.9,4.7,14,4.9,14c0.3,0,0.6-0.1,0.9-0.4v-0.1c0.2-0.2,0.7-0.7,1.2-0.7c0.5,0.1,0.9,0.4,1.2,0.8C8.3,13.9,8.6,14,8.9,14
	c0.2,0,0.4-0.1,0.6-0.2l0,0l1.7-1l0,0c0.4-0.3,0.6-0.9,0.4-1.5l0,0c-0.1-0.2-0.1-0.4-0.1-0.6l0,0l0,0c0-0.8,0.6-1.5,1.4-1.5l0,0h0.1
	c0.5,0,0.9-0.4,0.9-1l0,0l0,0l0,0C13.9,7.9,14,7.5,14,7C14,6.6,13.9,6.1,13.9,5.6L13.9,5.6z M6.9,9.3C5.7,9.3,4.8,8.2,4.8,7
	c0-1.3,1-2.3,2.2-2.3c1.2,0,2.2,1.1,2.2,2.4c0,0,0,0,0,0C9.2,8.3,8.2,9.4,6.9,9.3L6.9,9.3L6.9,9.3z"/>
</svg>
