<svg id="图层_1" data-name="图层 1" xmlns="http://www.w3.org/2000/svg" xmlns:xlink="http://www.w3.org/1999/xlink" viewBox="0 0 13.99 13.97"><defs><style>.cls-1{fill:none;}.cls-2{clip-path:url(#clip-path);}.cls-3{fill:black;}</style><clipPath id="clip-path" transform="translate(-298.92 -389.37)"><rect class="cls-1" x="298.92" y="389.36" width="14" height="14"/></clipPath></defs><title>ShrinkIco</title><g class="cls-2"><path class="cls-3" d="M310.58,389.37h-9.33a2.3,2.3,0,0,0-2.33,2.33V401a2.3,2.3,0,0,0,2.33,2.33h9.33a2.31,2.31,0,0,0,2.33-2.33V391.7a2.31,2.31,0,0,0-2.33-2.33ZM312,401a1.43,1.43,0,0,1-1.39,1.4h-9.33a1.43,1.43,0,0,1-1.4-1.4V391.7a1.43,1.43,0,0,1,1.4-1.4h9.33a1.43,1.43,0,0,1,1.39,1.4Zm0,0" transform="translate(-298.92 -389.37)"/></g><path class="cls-3" d="M310,391.6l-2.71,2.71v-1.68a.47.47,0,1,0-.93,0v2.79a.45.45,0,0,0,.47.47h2.79a.45.45,0,0,0,.47-.47.44.44,0,0,0-.47-.46H308l2.71-2.7a.45.45,0,0,0,0-.66.46.46,0,0,0-.65,0Zm-5,5.22h-2.8a.44.44,0,0,0-.46.47.43.43,0,0,0,.46.46h1.68l-2.7,2.7a.45.45,0,0,0,0,.66.46.46,0,0,0,.65,0l2.7-2.7v1.67a.47.47,0,0,0,.94,0v-2.79a.45.45,0,0,0-.47-.47Zm0,0" transform="translate(-298.92 -389.37)"/></svg>