<?xml version="1.0" encoding="utf-8"?>
<!-- Generator: Adobe Illustrator 24.0.1, SVG Export Plug-In . SVG Version: 6.00 Build 0)  -->
<svg version="1.1" id="图层_1" xmlns="http://www.w3.org/2000/svg" xmlns:xlink="http://www.w3.org/1999/xlink" x="0px" y="0px"
	 viewBox="0 0 17.3 14" style="enable-background:new 0 0 17.3 14;" xml:space="preserve">
<style type="text/css">
	.st0{fill:#000000;}
</style>
<path class="st0" d="M16.4,5.4H0.9C0.4,5.4,0,5,0,4.5s0.4-0.9,0.9-0.9h15.5c0.5,0,0.9,0.4,0.9,0.9S16.9,5.4,16.4,5.4z"/>
<path class="st0" d="M16.4,5.4c-0.2,0-0.5-0.1-0.7-0.3l-3.5-3.6c-0.3-0.4-0.3-0.9,0-1.3c0.4-0.3,0.9-0.3,1.3,0l3.5,3.6
	c0.3,0.4,0.3,0.9,0,1.3C16.9,5.4,16.7,5.4,16.4,5.4z"/>
<path class="st0" d="M16.4,10.4H0.9C0.4,10.4,0,10,0,9.5C0,9,0.4,8.6,0.9,8.6h15.5c0.5,0,0.9,0.4,0.9,0.9
	C17.3,10,16.9,10.4,16.4,10.4z"/>
<path class="st0" d="M4.4,14c-0.2,0-0.5-0.1-0.7-0.3l-3.5-3.6c-0.3-0.4-0.3-0.9,0-1.3c0.4-0.3,0.9-0.3,1.3,0L5,12.5
	c0.3,0.4,0.3,0.9,0,1.3C4.8,13.9,4.6,14,4.4,14z"/>
</svg>
