<?xml version="1.0" encoding="utf-8"?>
<!-- Generator: Adobe Illustrator 24.0.1, SVG Export Plug-In . SVG Version: 6.00 Build 0)  -->
<svg version="1.1" id="图层_1" xmlns="http://www.w3.org/2000/svg" xmlns:xlink="http://www.w3.org/1999/xlink" x="0px" y="0px"
	 viewBox="0 0 14 14" style="enable-background:new 0 0 14 14;" xml:space="preserve">
<path d="M12.1,14H1.9c-1,0-1.9-0.9-1.9-1.9V1.9C0,0.9,0.9,0,1.9,0h10.2c1,0,1.9,0.9,1.9,1.9v10.2C14,13.1,13.1,14,12.1,14z M1.9,0.7
	c-0.7,0-1.2,0.5-1.2,1.2v10.2c0,0.7,0.5,1.2,1.2,1.2h10.2c0.7,0,1.2-0.5,1.2-1.2V1.9c0-0.7-0.5-1.2-1.2-1.2L1.9,0.7z"/>
<path d="M7.1,2.9C6.5,2.9,6,3.1,5.5,3.5C4.8,4,4.5,4.7,4.6,5.6l0,0h1l0,0l0,0C5.6,4.5,6.1,4,7,3.8c0.6,0,1.3,0.5,1.3,1.1v0.1
	C8.3,5.5,8,6,7.4,6.5l0,0C7.1,6.9,6.7,7.3,6.6,7.8C6.5,8.2,6.4,8.7,6.5,9l0,0h0.9l0,0l0,0c0-0.9,0.4-1.5,1-2c0.6-0.5,1-1.1,1-1.9
	C9.4,4,8.4,2.9,7.1,2.9L7.1,2.9z"/>
<path d="M6.4,9.8h1l0,0v1.1l0,0h-1l0,0V9.8L6.4,9.8z"/>
</svg>
