<?xml version="1.0" encoding="utf-8"?>
<!-- Generator: Adobe Illustrator 24.0.1, SVG Export Plug-In . SVG Version: 6.00 Build 0)  -->
<svg version="1.1" id="图层_1" xmlns="http://www.w3.org/2000/svg" xmlns:xlink="http://www.w3.org/1999/xlink" x="0px" y="0px"
	 viewBox="0 0 11 14" style="enable-background:new 0 0 11 14;" xml:space="preserve">
<style type="text/css">
	.st0{fill:#0075FF;}
</style>
<path class="st0" d="M10.7,6L6,10.7c-0.3,0.3-0.7,0.3-1,0L0.2,6c-0.3-0.3-0.3-0.7,0-1c0.1-0.1,0.3-0.2,0.5-0.2H3V0.7
	C3,0.3,3.3,0,3.7,0c0,0,0,0,0,0h3.6C7.7,0,8,0.3,8,0.7c0,0,0,0,0,0v4.1h2.3c0.4,0,0.7,0.3,0.7,0.7C11,5.6,11,5.8,10.7,6L10.7,6z
	 M0.8,12.4h9.4c0.4,0,0.8,0.3,0.8,0.8c0,0.4-0.3,0.8-0.8,0.8c0,0,0,0,0,0H0.8C0.4,14,0,13.7,0,13.2S0.4,12.4,0.8,12.4z"/>
</svg>
