<?xml version="1.0" encoding="utf-8"?>
<!-- Generator: Adobe Illustrator 24.0.1, SVG Export Plug-In . SVG Version: 6.00 Build 0)  -->
<svg version="1.1" id="图层_1" xmlns="http://www.w3.org/2000/svg" xmlns:xlink="http://www.w3.org/1999/xlink" x="0px" y="0px"
	 viewBox="0 0 11.7 11.7" style="enable-background:new 0 0 11.7 11.7;" xml:space="preserve">
<style type="text/css">
	.st0{fill:black;}
</style>
<path class="st0" d="M9.9,11.7H1.8c-1,0-1.8-0.8-1.8-1.8V7.6C0,7.2,0.2,7,0.6,7s0.6,0.2,0.6,0.6v2.3c0,0.3,0.2,0.6,0.6,0.6h8.2
	c0.3,0,0.6-0.2,0.6-0.6V7.6c0-0.3,0.2-0.6,0.6-0.6c0.4,0,0.6,0.2,0.6,0.6v2.3C11.7,10.9,10.9,11.7,9.9,11.7z M8.8,4.1
	C8.6,4.1,8.5,4,8.3,3.9L5.8,1.4L3.3,3.9c-0.2,0.2-0.6,0.2-0.8,0c-0.2-0.2-0.2-0.6,0-0.8l2.9-2.9c0.2-0.2,0.6-0.2,0.8,0l2.9,2.9
	c0.2,0.2,0.2,0.6,0,0.8C9,4,8.9,4.1,8.8,4.1z"/>
<path class="st0" d="M5.8,8.2c-0.4,0-0.6-0.2-0.6-0.6v-7C5.3,0.2,5.5,0,5.8,0c0.3,0,0.6,0.2,0.6,0.6v7C6.4,7.9,6.2,8.2,5.8,8.2z"/>
</svg>
