<svg id="图层_1" data-name="图层 1" xmlns="http://www.w3.org/2000/svg" viewBox="0 0 17.14 10.15"><defs><style>.cls-1{fill:#0075FF;}</style></defs><path class="cls-1" d="M-11.06,15a9.44,9.44,0,0,1-8.57-5.08A9.45,9.45,0,0,1-11.06,4.8,9.44,9.44,0,0,1-2.49,9.87,9.43,9.43,0,0,1-11.06,15Zm.17-8.46a7.7,7.7,0,0,0-6.6,3.38,7.69,7.69,0,0,0,6.6,3.39A7.12,7.12,0,0,0-4.63,9.87a7.13,7.13,0,0,0-6.26-3.38Zm-.17,5.92a2.51,2.51,0,0,1-2.57-2.54,2.5,2.5,0,0,1,2.57-2.53A2.5,2.5,0,0,1-8.49,9.87a2.51,2.51,0,0,1-2.57,2.54Zm0-1.69a.81.81,0,0,0,.86-.85A.8.8,0,0,0-11.06,9a.81.81,0,0,0-.86.84.81.81,0,0,0,.86.85Zm0,0" transform="translate(19.63 -4.8)"/></svg>