<?xml version="1.0" encoding="utf-8"?>
<!-- Generator: Adobe Illustrator 24.0.1, SVG Export Plug-In . SVG Version: 6.00 Build 0)  -->
<svg version="1.1" id="图层_1" xmlns="http://www.w3.org/2000/svg" xmlns:xlink="http://www.w3.org/1999/xlink" x="0px" y="0px"
	 viewBox="0 0 20 14" style="enable-background:new 0 0 20 14;" xml:space="preserve">
<style type="text/css">
	.st0{fill:#0075FF;}
</style>
<path class="st0" d="M10,14c-4.2,0.1-8.1-2.6-10-7c1.9-4.4,5.8-7.1,10-7c4.2-0.1,8.1,2.6,10,7C18.1,11.4,14.2,14.1,10,14z M10.2,2.4
	C7.1,2.3,4.2,4,2.5,7c1.7,3,4.6,4.8,7.7,4.7c3,0.1,5.8-1.7,7.3-4.7C15.8,4,13.1,2.2,10.2,2.4L10.2,2.4z M10,10.5c-1.6,0-3-1.5-3-3.4
	V7c0-1.9,1.3-3.4,2.9-3.5H10c1.6-0.1,3,1.4,3,3.3c0,0,0,0,0,0.1c0,1.9-1.3,3.5-2.9,3.5C10,10.4,10,10.4,10,10.5L10,10.5z M10,8.2
	c0.5,0,0.9-0.4,1-1V7.1c0-0.7-0.3-1.2-0.8-1.3c-0.1,0-0.2,0-0.3,0c-0.5,0-0.9,0.4-1,1v0.1c0,0.6,0.3,1.1,0.9,1.2L10,8.2L10,8.2
	L10,8.2z"/>
</svg>
