<?xml version="1.0" encoding="utf-8"?>
<!-- Generator: Adobe Illustrator 24.0.1, SVG Export Plug-In . SVG Version: 6.00 Build 0)  -->
<svg version="1.1" id="图层_1" xmlns="http://www.w3.org/2000/svg" xmlns:xlink="http://www.w3.org/1999/xlink" x="0px" y="0px"
	 viewBox="0 0 23.5 14" style="enable-background:new 0 0 23.5 14;" xml:space="preserve">
<style type="text/css">
	.st0{fill:#0075FF;}
</style>
<path class="st0" d="M11.8,14C6.8,14.1,2.3,11.4,0,7c2.3-4.4,6.8-7.1,11.8-7c4.9-0.1,9.5,2.6,11.8,7C21.3,11.4,16.7,14.1,11.8,14z
	 M12,2.4C8.4,2.3,5,4,2.9,7c2,3,5.4,4.8,9.1,4.7c3.5,0.1,6.8-1.7,8.6-4.7C18.7,4,15.5,2.2,12,2.4L12,2.4z M11.8,10.5
	c-1.9,0-3.5-1.5-3.5-3.4c0,0,0-0.1,0-0.1c0-1.9,1.5-3.4,3.4-3.5c0,0,0.1,0,0.1,0c1.9-0.1,3.5,1.4,3.5,3.3c0,0,0,0,0,0.1
	c0,1.9-1.5,3.5-3.4,3.5C11.8,10.4,11.8,10.4,11.8,10.5L11.8,10.5z M11.8,8.2c0.6,0,1.1-0.4,1.2-1c0,0,0-0.1,0-0.1
	C13,6.4,12.6,5.9,12,5.8c-0.1,0-0.2,0-0.3,0c-0.6,0-1.1,0.4-1.2,1c0,0,0,0.1,0,0.1c0,0.6,0.4,1.1,1.1,1.2c0,0,0.1,0,0.1,0V8.2z"/>
</svg>
