<?xml version="1.0" encoding="utf-8"?>
<!-- Generator: Adobe Illustrator 24.0.1, SVG Export Plug-In . SVG Version: 6.00 Build 0)  -->
<svg version="1.1" id="图层_1" xmlns="http://www.w3.org/2000/svg" xmlns:xlink="http://www.w3.org/1999/xlink" x="0px" y="0px"
	 viewBox="0 0 14 14" style="enable-background:new 0 0 14 14;" xml:space="preserve">
<style type="text/css">
	.st0{fill:#FF8000;}
</style>
<path class="st0" d="M7,10.9c-0.4,0-0.7-0.3-0.7-0.7c0-0.4,0.3-0.7,0.7-0.7c0.4,0,0.7,0.3,0.7,0.7c0,0,0,0,0,0
	C7.7,10.6,7.4,10.9,7,10.9L7,10.9z M7,8.6c-0.3,0-0.6-0.3-0.6-0.6c0,0,0,0,0,0V3.4C6.3,3.1,6.5,2.7,6.8,2.7c0.3-0.1,0.7,0.1,0.7,0.4
	c0,0.1,0,0.2,0,0.3v4.5C7.6,8.2,7.3,8.5,7,8.6C7,8.5,7,8.5,7,8.6L7,8.6z M7,0C3.1,0,0,3.1,0,7s3.1,7,7,7s7-3.1,7-7S10.9,0,7,0z
	 M7,13.1c-3.4,0-6.1-2.7-6.1-6.1S3.6,0.9,7,0.9s6.1,2.7,6.1,6.1C13.1,10.3,10.3,13.1,7,13.1z"/>
</svg>
